<?xml version="1.0" standalone="no"?>
<!DOCTYPE svg PUBLIC "-//W3C//DTD SVG 20010904//EN"
 "http://www.w3.org/TR/2001/REC-SVG-20010904/DTD/svg10.dtd">
<svg version="1.0" xmlns="http://www.w3.org/2000/svg"
 width="500.000000pt" height="500.000000pt" viewBox="0 0 500.000000 500.000000"
 preserveAspectRatio="xMidYMid meet">
<metadata>
Created by potrace 1.14, written by Peter Selinger 2001-2017
</metadata>
<g transform="translate(0.000000,500.000000) scale(0.100000,-0.100000)"
fill="#000000" stroke="none">
<path d="M2684 4509 c-187 -150 -341 -273 -342 -275 -2 -1 10 -10 27 -18 21
-11 58 -16 128 -16 l98 0 2 -52 c1 -29 4 -129 7 -223 l5 -170 51 -3 c29 -2 50
1 50 7 0 6 -7 36 -15 68 -8 31 -15 72 -15 89 0 18 -5 34 -10 36 -6 2 -16 54
-24 116 -14 127 -12 132 56 132 60 0 61 -4 53 -146 -14 -264 -14 -296 4 -282
11 9 10 6 -2 -9 -11 -12 -16 -26 -13 -32 4 -5 3 -12 -2 -15 -5 -3 -6 -27 -3
-53 4 -26 6 -63 5 -80 0 -24 4 -33 16 -33 25 0 31 -11 17 -28 -10 -13 -9 -15
5 -9 10 3 20 1 24 -5 4 -7 3 -8 -4 -4 -7 4 -12 2 -12 -3 0 -8 -6 -7 -19 1 -18
11 -18 13 -3 25 16 11 15 12 -4 13 -19 0 -20 -5 -19 -102 2 -72 -2 -110 -12
-126 -7 -12 -10 -22 -6 -21 20 3 27 -2 13 -11 -11 -7 -11 -10 -2 -10 7 0 10
-5 7 -10 -5 -8 -12 -7 -23 2 -11 9 -14 9 -8 1 5 -9 -7 -12 -48 -10 -30 2 -58
6 -62 10 -4 4 -3 7 3 7 6 0 8 10 6 23 -4 20 -10 23 -46 22 -28 -1 -41 -5 -39
-14 1 -7 -2 -10 -8 -6 -6 3 -8 10 -5 15 3 5 -20 10 -52 10 -91 1 -113 3 -113
11 0 4 -7 10 -16 13 -12 4 -15 2 -10 -9 8 -23 0 -18 -19 11 -11 17 -12 24 -4
18 21 -13 51 -16 44 -4 -3 5 0 7 8 4 8 -3 17 -2 20 3 3 5 -11 9 -31 9 -228 6
-244 8 -252 29 -4 11 -4 25 1 31 6 7 1 10 -14 10 -12 -1 -25 -8 -29 -16 -5
-12 -7 -10 -8 5 -1 18 -2 18 -16 -5 -12 -20 -14 -21 -9 -4 5 19 1 20 -87 23
-50 1 -95 4 -100 7 -4 3 -5 16 -2 30 4 15 2 24 -6 24 -7 0 -10 -7 -7 -14 4
-10 1 -13 -8 -9 -8 3 -13 8 -11 12 7 11 -38 8 -46 -3 -5 -7 -8 -7 -8 2 0 9
-24 12 -86 12 -69 0 -85 3 -81 14 4 10 0 12 -14 9 -10 -3 -17 -8 -15 -12 3 -4
-5 -8 -16 -8 -20 -2 -20 -1 -2 13 18 13 18 14 1 8 -13 -5 -18 -2 -17 7 5 31
-2 34 -66 34 -36 0 -68 4 -71 8 -3 4 -11 3 -19 -4 -11 -9 -14 -9 -14 1 0 10
-3 10 -15 0 -11 -9 -15 -10 -15 -1 0 8 -8 10 -20 6 -10 -3 -28 -1 -39 5 -17 9
-20 8 -15 -5 4 -10 2 -14 -7 -10 -21 7 -158 12 -154 5 2 -4 -21 -5 -51 -3 -31
2 -54 -1 -54 -7 0 -6 -5 -10 -11 -10 -5 0 -8 4 -5 8 3 5 -1 9 -9 9 -15 0 -20
-15 -17 -52 2 -16 0 -17 -8 -5 -6 10 -10 11 -10 3 0 -9 -18 -13 -57 -13 -51 0
-59 -3 -69 -24 -10 -21 -9 -24 5 -19 14 4 14 3 1 -6 -8 -6 -24 -11 -34 -11
-19 0 -18 1 2 23 30 32 28 42 -3 11 -14 -14 -25 -29 -25 -34 0 -5 -9 -14 -20
-20 -16 -9 -18 -8 -14 5 4 8 1 15 -5 15 -7 0 -14 -7 -17 -15 -4 -8 -11 -12
-18 -8 -12 8 13 -28 29 -40 6 -4 1 -6 -10 -5 -11 0 -35 0 -52 0 -30 -2 -32 -4
-23 -26 6 -18 5 -28 -6 -36 -11 -10 -14 -10 -14 0 0 9 -4 9 -17 -1 -11 -9 -14
-10 -9 -2 5 9 2 11 -9 7 -10 -4 -15 -14 -12 -25 3 -10 0 -20 -7 -23 -7 -3 -7
-5 2 -5 27 -2 0 -21 -29 -21 -23 0 -30 -4 -28 -17 3 -35 -1 -43 -23 -44 l-23
0 22 -11 c24 -12 31 -28 12 -28 -8 0 -7 -6 2 -17 10 -14 8 -13 -10 2 l-24 20
7 -20 c5 -15 4 -17 -5 -8 -13 13 -3 37 12 28 5 -4 9 -1 9 4 0 6 -6 11 -14 11
-8 0 -17 6 -19 13 -3 6 -6 -4 -6 -24 -1 -19 -7 -41 -13 -48 -9 -10 -9 -12 -1
-7 10 5 11 -11 4 -53 -1 -2 -9 3 -18 10 -15 12 -16 12 -10 -3 8 -23 -2 -50
-15 -42 -6 4 -5 9 3 14 10 7 9 11 -3 24 -14 13 -15 12 -15 -17 0 -85 -4 -118
-12 -112 -5 3 -13 0 -17 -6 -4 -8 -9 -7 -16 2 -8 11 -9 10 -4 -3 3 -10 0 -18
-6 -18 -6 0 -8 -3 -5 -7 4 -3 16 2 27 12 16 14 21 15 25 4 6 -18 1 -76 -7 -85
-4 -3 -4 -12 -2 -19 3 -7 1 -16 -5 -20 -11 -6 -12 -3 -15 49 0 16 -6 31 -12
33 -7 2 -11 -7 -9 -27 1 -16 0 -30 -4 -30 -3 0 -6 -34 -6 -75 0 -41 4 -75 9
-75 5 0 2 -8 -5 -17 -12 -14 -12 -16 0 -8 10 6 12 4 6 -6 -12 -19 -13 -89 -2
-96 5 -3 3 -10 -4 -15 -11 -7 -9 -8 6 -6 13 3 19 11 18 23 -1 11 0 14 3 8 3
-7 12 -13 20 -13 8 0 14 -4 14 -9 0 -5 -7 -8 -16 -7 -9 0 -19 -5 -21 -12 -3
-7 1 -10 10 -6 8 3 17 1 21 -4 6 -10 -24 -10 -40 1 -7 4 -10 -9 -10 -37 1 -38
3 -43 18 -35 11 6 18 5 21 -4 3 -6 4 -2 4 10 -1 15 -5 19 -11 13 -15 -15 -30
-12 -17 4 9 11 9 15 -1 19 -7 3 -1 6 13 6 23 1 25 -2 26 -44 1 -25 2 -48 3
-52 1 -5 2 -27 2 -51 0 -32 4 -42 14 -38 8 3 11 0 7 -9 -3 -8 -10 -12 -16 -8
-6 4 -7 1 -2 -7 6 -10 12 -7 26 11 16 20 19 21 19 6 0 -10 4 -16 8 -13 10 6 9
-25 -2 -42 -4 -6 -3 -12 2 -12 6 0 9 -13 8 -30 -2 -32 11 -38 33 -17 11 10 13
10 7 0 -4 -8 -1 -13 8 -13 12 0 16 -10 16 -35 0 -21 5 -35 13 -35 9 0 8 -3 -2
-9 -8 -5 -9 -11 -3 -15 5 -3 12 1 15 8 9 22 45 16 39 -6 -2 -10 -1 -26 4 -35
9 -21 11 -30 13 -58 1 -16 3 -17 11 -5 6 9 5 17 -3 23 -7 5 -3 6 11 2 13 -4
22 -2 22 5 0 6 -4 9 -9 6 -5 -3 -14 0 -20 8 -10 11 -7 14 14 12 19 -1 25 -6
24 -21 -3 -39 1 -56 11 -50 6 4 18 1 27 -7 12 -9 15 -9 9 0 -4 6 -3 12 3 12
14 0 23 -18 12 -25 -23 -14 2 -35 43 -36 29 0 36 -3 22 -8 -19 -7 -19 -8 2
-13 15 -4 25 -1 31 10 9 15 10 14 8 -4 -1 -17 -6 -21 -25 -18 -20 4 -22 2 -13
-14 6 -11 7 -23 3 -27 -4 -3 0 -5 8 -3 8 2 14 -2 13 -8 -1 -6 4 -11 12 -11 10
0 10 6 -3 26 -16 24 -16 25 0 13 10 -8 22 -11 27 -8 6 4 9 -7 7 -29 -2 -19 0
-38 5 -41 5 -3 8 0 7 7 -2 6 3 14 11 17 8 3 11 0 7 -7 -4 -7 -2 -9 7 -5 8 3
18 0 22 -7 6 -8 12 -4 22 12 8 13 12 16 9 7 -3 -10 -1 -18 4 -18 6 0 10 6 10
13 0 8 3 7 9 -3 6 -8 8 -17 5 -21 -8 -14 17 -22 29 -10 9 9 7 10 -7 5 -13 -5
-17 -4 -12 4 4 6 38 10 89 9 78 -2 82 -3 83 -25 1 -13 -4 -26 -11 -28 -6 -3
-12 -12 -12 -21 0 -14 2 -14 12 0 7 10 20 13 38 10 15 -3 34 1 44 8 9 8 14 9
11 4 -4 -6 2 -17 14 -24 11 -7 17 -8 13 -2 -4 7 3 10 19 9 24 -2 32 -20 28
-59 -1 -3 10 -4 23 -1 14 2 25 8 25 13 0 5 4 9 9 9 5 0 7 -10 4 -22 -3 -15 -2
-19 4 -10 10 13 113 13 113 -1 0 -4 6 -5 13 0 6 4 21 9 32 10 15 2 16 1 6 -6
-8 -5 -9 -11 -3 -15 6 -4 15 0 19 9 7 12 11 11 22 -8 13 -19 12 -21 -1 -9 -12
10 -17 10 -27 -1 -6 -8 -8 -17 -4 -20 3 -4 1 -7 -5 -7 -7 0 -12 5 -12 11 0 5
-4 8 -9 4 -5 -3 -16 2 -25 10 -8 8 -17 11 -20 6 -8 -13 57 -41 82 -36 12 2 22
-1 22 -7 0 -6 12 -3 26 7 15 10 23 12 19 4 -6 -9 -3 -11 9 -6 9 4 15 3 11 -2
-3 -6 7 -6 25 -1 18 5 28 5 25 -1 -4 -5 8 -7 27 -4 18 3 38 5 43 5 46 -2 75
-6 81 -13 5 -4 1 -5 -9 -1 -13 5 -16 2 -11 -10 3 -9 1 -16 -6 -16 -6 0 -9 4
-5 9 3 5 1 12 -4 16 -6 3 -8 -3 -6 -15 2 -11 -1 -20 -7 -20 -5 0 -7 7 -4 16 4
10 2 13 -6 8 -7 -4 -8 -3 -4 4 4 7 2 12 -4 12 -7 0 -9 -9 -5 -22 5 -22 5 -21
-10 2 -12 18 -14 19 -9 5 3 -11 7 -26 7 -33 0 -8 4 -9 10 -3 7 7 16 7 28 1 11
-7 20 -7 24 0 3 5 11 10 17 10 7 0 7 -4 1 -12 -18 -23 -11 -46 14 -44 15 1 21
6 18 14 -3 8 -5 17 -5 20 0 4 -5 0 -11 -8 -8 -12 -10 -12 -7 -1 2 8 11 15 19
16 20 3 23 -51 3 -59 -9 -3 -12 -1 -9 4 3 6 1 10 -4 10 -6 0 -11 -4 -11 -10 0
-5 -6 -7 -13 -4 -11 4 -12 -6 -7 -46 5 -41 4 -50 -9 -50 -11 0 -12 -3 -4 -8 7
-4 11 -17 10 -29 0 -12 -5 -19 -9 -17 -4 3 -8 0 -8 -5 0 -6 5 -11 10 -11 6 0
10 -7 10 -16 0 -14 -2 -15 -17 -3 -9 8 -14 9 -11 4 4 -7 -10 -10 -40 -10 -26
1 -56 -2 -67 -5 -13 -5 -24 -2 -32 9 -12 14 -12 14 -6 -3 5 -14 3 -17 -6 -11
-7 4 -28 8 -47 10 -33 2 -34 1 -34 -37 0 -26 -4 -38 -14 -38 -8 0 -18 5 -21
10 -10 17 -27 -1 -22 -22 4 -15 3 -17 -8 -8 -10 9 -13 7 -10 -7 1 -10 9 -17
16 -15 9 1 8 -3 -3 -11 -10 -8 -15 -17 -11 -21 4 -4 -1 -4 -12 0 -20 7 -20 7
-1 -15 19 -21 19 -22 1 -39 -18 -16 -18 -16 -5 2 13 16 12 20 -6 35 -16 13
-18 19 -9 28 7 7 16 10 19 7 3 -2 4 -1 1 3 -8 11 -36 13 -29 2 3 -5 1 -9 -5
-9 -5 0 -10 -8 -9 -17 0 -10 -1 -49 -2 -86 -1 -37 0 -70 3 -73 3 -3 1 -19 -3
-35 -5 -16 -5 -29 0 -29 5 0 5 -12 1 -27 -11 -37 -1 -57 27 -60 16 -2 21 1 16
10 -5 7 -1 6 10 -3 17 -13 17 -14 -1 -21 -10 -3 -22 -4 -28 -1 -5 3 -3 -3 5
-13 14 -17 13 -18 -2 -12 -10 3 -20 2 -22 -2 -3 -5 5 -8 17 -7 12 1 21 7 20
14 -3 13 9 16 20 5 4 -3 1 -13 -6 -21 -10 -13 -9 -15 11 -10 12 4 22 2 22 -4
0 -7 4 -7 13 0 8 7 18 4 32 -11 l20 -20 -22 12 c-15 8 -23 8 -23 1 0 -5 5 -10
10 -10 6 0 10 -9 10 -20 0 -11 -5 -20 -12 -20 -6 0 -9 -2 -6 -5 3 -3 16 -1 30
4 14 5 31 5 38 1 8 -5 22 -4 31 1 22 11 37 -8 19 -24 -10 -10 -12 -8 -6 8 6
18 5 19 -7 3 -8 -10 -17 -14 -22 -10 -4 4 -1 -3 6 -15 14 -24 31 -31 26 -12
-1 6 4 14 11 16 8 3 10 -2 6 -14 -4 -13 -3 -15 4 -4 5 7 7 23 5 35 -4 17 -3
18 6 6 6 -8 8 -23 5 -32 -3 -12 1 -17 13 -16 10 0 23 0 28 -2 20 -5 36 0 30
10 -3 6 -1 10 4 10 6 0 11 -3 11 -8 0 -4 10 -13 23 -21 21 -13 21 -13 7 4 -14
17 -13 18 3 12 11 -4 16 -3 12 4 -4 6 -14 8 -24 5 -12 -5 -11 -2 3 9 11 8 24
15 29 15 4 0 5 5 1 11 -5 8 3 10 25 7 25 -4 31 -2 26 10 -4 12 -3 13 10 2 8
-7 21 -10 29 -7 8 3 20 -1 26 -9 7 -8 17 -14 23 -14 6 0 1 7 -11 16 -18 12
-20 19 -12 35 6 10 8 20 5 20 -3 1 -9 2 -14 3 -23 3 -20 14 3 12 16 -2 31 3
37 13 8 13 9 12 5 -7 -4 -19 -2 -21 10 -11 8 7 12 19 9 27 -5 13 -3 13 12 1
16 -12 17 -12 5 2 -12 16 -13 69 -2 69 3 0 11 -5 18 -12 7 -7 12 -8 12 -4 0 5
6 4 13 -2 10 -9 13 -3 12 26 0 20 3 45 8 54 4 11 4 18 -2 18 -6 0 -8 7 -5 15
4 8 0 23 -7 32 -10 12 -10 15 -1 9 7 -4 12 -2 12 7 0 22 -12 28 -29 14 -14
-11 -14 -10 -2 5 9 13 18 15 31 8 11 -6 21 -5 28 2 9 9 12 9 12 -1 0 -7 5 -9
12 -5 16 10 58 12 64 2 3 -4 11 -5 20 -1 12 5 12 7 -3 19 -16 12 -16 13 -2 14
9 0 22 7 29 15 7 8 23 15 37 15 14 0 21 4 18 10 -4 6 -11 7 -17 4 -7 -5 -8 -2
-3 6 6 10 12 8 27 -9 15 -19 18 -20 18 -6 0 9 9 19 20 22 19 5 19 5 -1 22
l-21 17 21 1 c12 1 19 -2 16 -7 -3 -4 6 -3 19 3 14 7 24 14 23 17 -4 11 41 59
48 52 5 -4 5 -1 1 6 -4 6 -3 12 3 12 5 0 12 -6 14 -12 3 -7 4 2 2 20 -2 17 1
32 6 32 6 0 7 5 4 11 -9 14 -10 118 -1 126 10 10 100 3 104 -8 2 -5 8 -9 13
-9 6 0 8 4 4 9 -9 15 58 9 74 -6 7 -8 20 -12 28 -8 11 4 13 1 9 -11 -3 -8 -6
-18 -6 -21 0 -4 -8 1 -17 9 -20 17 -66 31 -57 17 3 -5 13 -9 23 -9 22 0 44
-23 33 -36 -4 -4 0 -3 8 3 9 7 55 10 121 8 59 -1 113 2 120 7 10 7 9 8 -6 3
-15 -5 -17 -3 -8 6 14 14 34 3 26 -16 -3 -8 0 -15 6 -15 6 0 11 5 11 10 0 13
32 9 42 -5 5 -7 8 -6 8 1 0 6 22 10 55 9 54 -2 77 7 55 20 -5 3 -10 11 -10 18
0 6 11 -1 25 -16 27 -28 42 -36 29 -14 -11 18 -46 41 -68 44 -16 3 -17 1 -6
-12 7 -8 9 -15 4 -16 -5 0 -16 -2 -25 -4 -8 -1 -23 3 -32 10 -15 11 -16 14 -2
25 13 11 14 10 9 -6 -4 -10 -4 -16 1 -12 4 4 14 3 22 -3 15 -13 18 2 3 17 -20
20 62 13 84 -7 11 -11 25 -19 30 -18 6 0 5 3 -2 6 -6 2 -9 10 -6 15 4 6 2 8
-4 4 -6 -3 -13 -2 -17 4 -4 6 12 10 42 10 27 0 55 6 62 13 8 7 11 7 8 1 -4 -7
3 -14 18 -17 26 -4 43 7 26 17 -5 3 -7 15 -4 25 7 26 33 36 33 13 1 -15 2 -15
13 -1 7 9 17 14 22 12 13 -4 14 50 0 59 -12 9 59 3 73 -6 6 -4 8 3 5 16 -3 14
-1 19 4 12 10 -13 55 -26 47 -13 -3 5 0 9 6 9 7 0 8 6 1 19 -8 14 -7 22 6 32
14 12 15 11 8 -11 -7 -23 -6 -24 7 -6 11 14 23 17 44 13 27 -5 27 -4 9 9 -18
14 -18 14 0 27 14 11 15 16 5 22 -8 5 -11 4 -7 -2 4 -6 -2 -13 -13 -16 -16 -4
-17 -2 -7 14 8 13 21 18 42 16 26 -2 30 1 30 23 0 14 4 30 8 37 4 6 4 18 1 27
-6 15 -2 17 28 20 6 1 12 -7 14 -17 4 -30 13 -32 11 -3 -1 15 -9 32 -17 37
-13 9 -12 10 3 5 9 -3 17 0 18 7 1 7 2 23 2 37 2 21 6 25 33 23 30 -1 32 0 28
33 -1 19 1 34 5 34 5 0 7 12 5 27 -3 26 23 72 40 73 5 0 1 -8 -8 -19 -15 -16
-15 -19 -1 -24 8 -4 16 -1 16 6 6 51 7 82 9 152 1 44 6 85 12 92 5 7 6 18 2
25 -14 21 -11 72 5 84 11 9 12 12 1 19 -9 5 -11 4 -6 -3 4 -7 3 -12 -2 -12 -5
0 -9 36 -9 80 0 80 0 80 26 80 20 0 22 -3 11 -9 -8 -6 -17 -8 -20 -6 -3 2 -6
-5 -6 -15 0 -10 6 -16 13 -13 7 3 10 9 7 14 -10 16 8 9 23 -8 13 -16 13 -16 4
4 -8 15 -8 24 -1 28 8 5 7 11 -1 21 -9 11 -9 14 1 14 10 0 10 3 0 15 -7 8 -16
12 -21 9 -5 -3 -9 -1 -9 5 0 5 8 12 18 15 19 6 26 36 9 36 -6 0 -5 5 1 13 5 6
10 41 11 77 0 45 -2 60 -9 50 -5 -8 -10 -10 -10 -4 0 19 35 45 46 34 7 -7 11
-6 11 4 0 8 -8 13 -19 11 -11 -2 -18 2 -18 11 0 21 4 29 13 26 4 -1 7 2 7 8 0
5 -4 10 -9 10 -6 0 -9 9 -8 19 0 11 4 19 7 19 42 -4 51 3 48 35 -3 33 -4 33
58 36 15 1 20 7 20 24 -1 12 -5 25 -9 28 -4 3 6 6 23 6 18 0 29 -5 27 -11 -2
-6 -11 -10 -21 -8 -9 2 -16 -2 -16 -8 0 -6 5 -8 12 -4 7 5 9 2 6 -7 -4 -10 2
-14 20 -16 14 0 21 2 16 5 -13 10 -16 32 -3 32 5 0 7 5 4 10 -6 9 107 16 174
10 14 -1 21 2 17 9 -10 15 7 14 24 -1 12 -11 12 -10 2 3 -6 9 -9 19 -5 22 3 4
11 -1 18 -10 13 -18 55 -28 55 -14 0 6 -5 13 -12 17 -7 5 -8 2 -3 -7 5 -8 4
-11 -1 -6 -5 5 -9 14 -9 20 0 6 -15 11 -32 12 -18 1 -36 5 -40 8 -7 8 -6 8 68
11 47 1 56 -1 52 -14 -3 -11 -1 -10 10 3 13 16 15 16 21 2 3 -9 2 -13 -4 -10
-6 3 -10 1 -10 -5 0 -7 -7 -9 -16 -6 -10 4 -13 2 -8 -6 4 -7 3 -8 -4 -4 -8 5
-10 1 -5 -9 5 -13 7 -14 14 -3 6 8 12 9 17 3 4 -6 19 -11 34 -13 19 -2 28 2
31 15 4 14 5 15 6 2 1 -13 12 -16 59 -15 55 1 59 2 57 25 -1 25 -38 40 -50 21
-3 -5 0 -7 8 -4 8 3 20 -2 27 -11 8 -9 8 -15 2 -15 -6 0 -14 5 -17 11 -5 7
-16 4 -33 -7 -15 -9 -21 -11 -14 -3 20 22 14 34 -8 14 -11 -10 -20 -13 -20 -8
0 6 7 14 16 17 9 3 12 11 8 18 -6 10 -5 11 8 1 8 -7 18 -10 22 -6 6 7 55 12
138 15 15 1 27 4 26 7 -2 22 4 31 15 25 6 -4 9 -3 4 1 -4 5 0 16 9 26 10 11
12 19 5 24 -6 3 -11 16 -10 28 0 12 3 16 6 10 2 -7 9 -13 14 -13 6 0 7 5 4 10
-4 6 5 10 21 10 20 0 24 3 16 13 -7 8 -7 18 -2 27 5 8 6 18 3 24 -4 5 1 7 10
3 15 -6 16 -4 3 16 -14 23 -8 69 9 67 19 -3 16 19 -5 30 -11 6 -18 15 -15 21
4 5 12 6 18 2 7 -4 6 0 -2 10 -16 21 -24 100 -8 90 6 -3 7 -1 3 5 -4 7 -14 12
-22 12 -8 0 -14 5 -14 10 0 6 -5 10 -11 10 -5 0 -8 -4 -5 -8 3 -5 -1 -9 -7 -9
-7 0 -14 9 -14 19 -1 10 3 18 8 18 14 0 -12 37 -36 49 -19 11 -19 11 3 5 18
-4 22 -1 22 18 0 18 -2 20 -10 8 -6 -10 -10 -11 -10 -2 0 6 -7 12 -16 12 -8 0
-13 -4 -9 -9 3 -5 1 -13 -5 -16 -6 -4 -10 -3 -9 2 4 22 -3 32 -20 28 -11 -2
-22 3 -25 10 -3 10 2 12 22 9 19 -3 23 -2 13 5 -8 5 -11 16 -8 25 5 14 3 15
-13 6 -10 -5 -21 -7 -24 -2 -2 4 -36 7 -75 7 -73 0 -74 0 -74 45 0 15 -36 26
-38 12 -2 -23 -8 -45 -13 -50 -3 -3 -4 9 -2 26 2 18 1 32 -3 33 -3 1 -19 2
-36 3 -27 1 -30 4 -29 34 0 27 -3 32 -18 29 -10 -3 -18 0 -18 6 0 8 -4 7 -12
-1 -7 -7 -16 -12 -22 -12 -5 0 -7 3 -3 6 3 3 1 17 -4 31 -8 21 -7 24 6 19 9
-3 14 -2 11 2 -3 5 -22 9 -42 10 -21 1 -42 7 -48 13 -8 9 -8 10 2 5 8 -5 12 2
12 25 0 26 -3 31 -20 26 -11 -3 -20 -1 -20 4 0 4 -6 6 -14 3 -10 -4 -13 3 -11
25 2 28 0 31 -24 31 -50 0 -62 3 -51 14 17 17 11 43 -10 49 -12 3 -24 -1 -30
-11 -11 -19 -13 -12 -14 43 -1 30 -1 30 -60 31 -36 0 -61 5 -64 12 -2 7 -7 10
-12 7 -5 -3 -11 4 -15 15 -4 11 -11 18 -16 15 -5 -4 -5 -13 0 -24 7 -13 6 -18
-4 -18 -7 0 -11 7 -7 15 4 11 1 13 -9 7 -8 -5 -5 1 5 13 11 12 16 25 12 29 -4
4 -11 1 -16 -7 -7 -11 -10 -8 -10 13 0 15 -4 27 -10 27 -5 0 -10 4 -10 10 0 5
-25 44 -55 86 -30 42 -55 80 -55 84 0 7 125 114 282 243 32 26 58 52 58 57 0
13 12 12 -305 15 -148 1 -310 5 -360 8 -49 4 -138 9 -196 12 l-106 5 -339
-271z m1270 -374 c-11 -7 -16 -17 -11 -21 4 -4 7 -2 7 4 0 7 5 12 12 12 6 0 4
-8 -6 -19 -18 -20 -46 -18 -46 3 0 18 17 32 41 33 20 2 21 1 3 -12z m74 -66
c-2 -6 -8 -10 -13 -9 -5 1 -13 -7 -17 -17 -7 -16 -8 -16 -5 2 2 11 9 19 15 18
7 -2 12 2 12 7 0 6 3 10 6 10 3 0 4 -5 2 -11z m158 -195 c-5 -12 -2 -15 11
-10 14 6 15 4 6 -5 -14 -14 -34 -3 -26 16 3 8 7 15 10 15 3 0 2 -7 -1 -16z
m-1386 -29 c10 -12 9 -15 -4 -15 -10 0 -14 5 -10 11 4 7 1 10 -7 7 -8 -3 -12
-14 -11 -24 2 -10 1 -16 -2 -13 -4 4 -8 16 -11 28 -5 25 25 30 45 6z m-10 -45
c-8 -5 -19 -10 -25 -10 -5 0 -3 5 5 10 8 5 20 10 25 10 6 0 3 -5 -5 -10z m15
-20 c3 -5 1 -10 -4 -10 -6 0 -11 5 -11 10 0 6 2 10 4 10 3 0 8 -4 11 -10z
m1612 -50 c2 -12 -3 -20 -12 -20 -10 0 -14 7 -11 23 3 12 5 24 5 26 2 10 15
-11 18 -29z m-1627 -24 c0 -3 -4 -8 -10 -11 -5 -3 -10 -1 -10 4 0 6 5 11 10
11 6 0 10 -2 10 -4z m1785 -42 c1 -13 -1 -24 -2 -24 -7 0 -20 45 -16 53 8 13
18 -3 18 -29z m-41 18 c3 -5 -1 -9 -9 -9 -8 0 -12 4 -9 9 3 4 7 8 9 8 2 0 6
-4 9 -8z m-1750 -20 c2 -4 -5 -9 -17 -9 -17 -2 -19 0 -7 7 18 12 18 12 24 2z
m1871 -80 c-3 -3 -11 0 -18 7 -9 10 -8 11 6 5 10 -3 15 -9 12 -12z m-3697 -52
c7 -11 11 -20 9 -20 -2 0 -12 9 -22 20 -10 11 -14 20 -9 20 5 0 15 -9 22 -20z
m29 5 c0 -8 -4 -12 -9 -9 -4 3 -8 9 -8 15 0 5 4 9 8 9 5 0 9 -7 9 -15z m736
-50 c-3 -9 -8 -14 -10 -11 -3 3 -2 9 2 15 9 16 15 13 8 -4z m1049 -11 c-8 -58
-17 -64 -18 -13 -1 25 3 38 10 36 6 -2 10 -13 8 -23z m38 6 c0 -5 -6 -10 -12
-10 -9 0 -8 -4 2 -10 10 -6 11 -10 3 -10 -7 0 -13 -5 -13 -11 0 -5 4 -8 8 -5
5 3 9 -1 9 -9 0 -7 -8 -13 -18 -12 -17 1 -24 37 -7 37 4 0 7 3 7 8 -3 18 2 32
11 32 6 0 10 -4 10 -10z m-1000 -20 c0 -5 -9 -8 -20 -7 -22 1 -27 13 -7 20 14
5 27 -1 27 -13z m270 -65 c0 -5 -5 -3 -10 5 -5 8 -10 20 -10 25 0 6 5 3 10 -5
5 -8 10 -19 10 -25z m-27 1 c4 -10 1 -13 -9 -9 -15 6 -19 23 -5 23 5 0 11 -7
14 -14z m717 4 c0 -5 -4 -10 -10 -10 -5 0 -10 5 -10 10 0 6 5 10 10 10 6 0 10
-4 10 -10z m29 -6 c4 3 7 -11 7 -30 0 -19 -4 -34 -9 -34 -4 0 -6 -4 -3 -8 3
-5 -2 -9 -10 -9 -10 0 -11 4 -4 11 20 20 10 29 -12 10 -21 -17 -21 -16 1 9 23
25 18 40 -5 17 -7 -7 -11 -6 -11 4 0 8 4 13 8 10 4 -2 11 6 15 18 4 13 9 18
11 10 3 -6 8 -10 12 -8z m1981 -44 c0 -5 -7 -7 -15 -4 -8 4 -15 8 -15 10 0 2
7 4 15 4 8 0 15 -4 15 -10z m-2513 -15 c0 -8 -4 -12 -9 -9 -5 3 -6 10 -3 15 9
13 12 11 12 -6z m303 -35 c0 -5 -5 -10 -11 -10 -5 0 -7 5 -4 10 3 6 8 10 11
10 2 0 4 -4 4 -10z m0 -41 c0 -5 -4 -9 -8 -9 -5 0 -9 7 -9 15 0 8 4 12 9 9 4
-3 8 -9 8 -15z m2096 -154 c-9 -7 -17 -17 -16 -21 1 -5 -3 -10 -9 -12 -7 -2
-8 3 -4 15 6 16 5 17 -12 3 -17 -14 -17 -14 -5 6 8 13 24 22 39 22 23 0 23 -2
7 -13z m-455 -62 c13 -16 12 -17 -3 -4 -10 7 -18 15 -18 17 0 8 8 3 21 -13z
m219 -3 c0 -5 -4 -10 -10 -10 -5 0 -10 5 -10 10 0 6 5 10 10 10 6 0 10 -4 10
-10z m-4039 -37 c-12 -20 -14 -14 -5 12 4 9 9 14 11 11 3 -2 0 -13 -6 -23z
m3906 12 c0 -8 -4 -12 -9 -9 -5 3 -6 10 -3 15 9 13 12 11 12 -6z m113 -5 c0
-5 -7 -7 -15 -4 -8 4 -15 8 -15 10 0 2 7 4 15 4 8 0 15 -4 15 -10z m114 2 c3
-5 -1 -9 -9 -9 -8 0 -12 4 -9 9 3 4 7 8 9 8 2 0 6 -4 9 -8z m-660 -104 c-5 -7
-1 -9 9 -5 9 3 19 2 21 -2 3 -5 -4 -8 -16 -7 -12 1 -22 9 -24 19 -1 9 2 15 7
11 5 -3 6 -10 3 -16z m-3554 -148 c0 -5 -4 -10 -10 -10 -5 0 -10 5 -10 10 0 6
5 10 10 10 6 0 10 -4 10 -10z m24 -17 c4 -10 4 -14 0 -11 -3 4 -15 -3 -25 -15
-19 -22 -19 -22 -2 10 10 18 19 33 19 33 1 0 5 -8 8 -17z m1 -63 c3 -6 -1 -7
-9 -4 -18 7 -21 14 -7 14 6 0 13 -4 16 -10z m3491 -56 c1 -9 0 -13 -4 -10 -3
4 -7 14 -8 22 -1 9 0 13 4 10 3 -4 7 -14 8 -22z m-3523 -24 c-3 -12 -8 -19
-11 -16 -5 6 5 36 12 36 2 0 2 -9 -1 -20z m20 -15 c-3 -9 -8 -14 -10 -11 -3 3
-2 9 2 15 9 16 15 13 8 -4z m3492 -3 c-3 -3 -11 0 -18 7 -9 10 -8 11 6 5 10
-3 15 -9 12 -12z m-12 -34 c-19 -23 -12 -49 11 -43 12 3 15 2 8 -1 -10 -5 -9
-10 5 -21 17 -13 16 -13 -5 -3 -12 6 -26 9 -30 6 -10 -6 -8 43 2 67 5 10 11
16 14 13 3 -3 0 -11 -5 -18z m-3426 -244 c-3 -3 -12 -4 -19 -1 -8 3 -5 6 6 6
11 1 17 -2 13 -5z m53 -104 c0 -5 -5 -10 -11 -10 -5 0 -7 5 -4 10 3 6 8 10 11
10 2 0 4 -4 4 -10z m35 -20 c3 -6 -1 -7 -9 -4 -18 7 -21 14 -7 14 6 0 13 -4
16 -10z m3270 -181 c-3 -12 -7 -24 -10 -27 -3 -3 -3 5 -1 19 6 30 5 29 10 29
3 0 3 -10 1 -21z m35 17 c0 -3 -4 -8 -10 -11 -5 -3 -10 -1 -10 4 0 6 5 11 10
11 6 0 10 -2 10 -4z m-80 -136 c0 -5 -2 -10 -4 -10 -3 0 -8 5 -11 10 -3 6 -1
10 4 10 6 0 11 -4 11 -10z m-2830 -72 c0 -5 5 -6 11 -3 6 4 5 -2 -2 -13 -10
-16 -17 -18 -31 -11 -10 6 -22 7 -27 4 -7 -4 -8 21 -2 31 4 7 51 -1 51 -8z
m271 -65 c8 -9 9 -14 2 -10 -6 4 -13 1 -16 -5 -3 -7 -4 -3 -4 10 1 26 1 26 18
5z m38 4 c8 -10 7 -14 -2 -14 -8 0 -14 6 -14 14 0 7 1 13 2 13 2 0 8 -6 14
-13z m112 -93 c5 -6 4 -11 -4 -11 -7 0 -13 12 -14 26 -1 14 1 19 4 11 3 -8 10
-20 14 -26z m24 7 c-6 -5 -25 10 -25 20 0 5 6 4 14 -3 8 -7 12 -15 11 -17z
m245 -41 c0 -5 -5 -10 -11 -10 -5 0 -7 5 -4 10 3 6 8 10 11 10 2 0 4 -4 4 -10z
m-9 -43 c-10 -9 -11 -8 -5 6 3 10 9 15 12 12 3 -3 0 -11 -7 -18z m-31 3 c0 -5
-2 -10 -4 -10 -3 0 -8 5 -11 10 -3 6 -1 10 4 10 6 0 11 -4 11 -10z m313 -54
c6 -15 -17 -16 -30 -1 -4 4 -2 5 5 1 6 -4 12 -2 12 3 0 15 7 14 13 -3z m1622
2 c5 4 5 1 1 -6 -6 -10 -11 -10 -22 -1 -8 6 -14 14 -14 16 0 3 6 0 13 -6 8 -6
18 -7 22 -3z m-195 -110 c0 -5 -4 -6 -10 -3 -16 10 -12 -7 7 -27 15 -17 15
-18 1 -13 -9 4 -19 13 -22 21 -3 9 -10 13 -14 10 -5 -3 -9 0 -9 7 0 7 11 13
24 13 13 1 23 -2 23 -8z m-600 -58 c0 -5 -4 -10 -9 -10 -6 0 -13 5 -16 10 -3
6 1 10 9 10 9 0 16 -4 16 -10z m34 -5 c-5 -11 -2 -13 10 -9 9 3 14 9 12 13 -3
4 6 7 19 7 18 0 21 -3 14 -12 -6 -8 -6 -14 0 -18 5 -3 11 0 14 6 4 10 7 11 18
1 10 -11 11 -15 0 -25 -10 -11 -11 -9 -5 7 7 19 7 19 -13 2 -11 -9 -22 -15
-25 -12 -11 11 -48 14 -48 4 0 -6 -5 -7 -11 -3 -8 5 -8 9 1 14 9 5 9 9 1 14
-16 10 -14 26 4 26 9 0 12 -6 9 -15z m111 -3 c-3 -3 -11 0 -18 7 -9 10 -8 11
6 5 10 -3 15 -9 12 -12z m35 8 c0 -5 -5 -10 -11 -10 -5 0 -7 5 -4 10 3 6 8 10
11 10 2 0 4 -4 4 -10z m32 -22 c-7 -7 -12 -8 -12 -3 0 5 -7 0 -16 -11 -14 -18
-15 -18 -4 4 6 13 16 20 22 16 8 -5 9 -1 4 12 -6 15 -5 17 5 7 10 -10 10 -16
1 -25z m41 15 c-4 -11 -3 -14 5 -9 7 4 15 1 18 -8 3 -9 14 -13 29 -10 13 2 26
1 29 -4 2 -4 -9 -7 -25 -7 -17 0 -34 7 -39 15 -6 8 -10 11 -10 6 0 -6 -5 -5
-11 1 -6 6 -8 16 -5 22 11 17 16 13 9 -6z m59 10 c-6 -3 -10 -9 -7 -14 4 -5
-1 -6 -9 -3 -23 9 -19 20 7 21 12 0 16 -1 9 -4z m-601 -36 c-10 -9 -11 -8 -5
6 3 10 9 15 12 12 3 -3 0 -11 -7 -18z m449 4 c0 -6 -4 -12 -8 -15 -5 -3 -9 1
-9 9 0 8 4 15 9 15 4 0 8 -4 8 -9z m254 -9 c2 -4 -5 -9 -17 -9 -17 -2 -19 0
-7 7 18 12 18 12 24 2z m-680 -18 c3 -8 2 -12 -4 -9 -6 3 -10 10 -10 16 0 14
7 11 14 -7z m-10 -35 c-3 -5 -11 -9 -17 -8 -8 0 -8 2 1 6 10 4 10 8 0 21 -12
15 -11 16 4 3 10 -7 15 -17 12 -22z m32 7 c0 -14 -5 -21 -9 -17 -4 4 -5 15 -1
24 9 24 12 21 10 -7z m-6 -36 c13 -9 13 -10 0 -11 -8 -1 -20 -1 -26 0 -6 1
-11 -5 -11 -13 0 -11 5 -12 18 -5 31 16 32 10 4 -23 -32 -38 -71 -66 -45 -32
8 10 22 25 30 32 13 10 13 11 -2 6 -13 -4 -17 0 -15 18 2 34 20 45 47 28z
m-848 -14 c7 4 8 2 4 -5 -9 -13 -26 -5 -25 12 0 9 2 8 6 -1 2 -6 10 -9 15 -6z
m15 -30 c0 -8 -6 -12 -15 -9 -11 5 -11 7 0 14 7 5 13 9 14 9 0 0 1 -6 1 -14z
m703 -116 c0 -5 -4 -10 -10 -10 -5 0 -10 5 -10 10 0 6 5 10 10 10 6 0 10 -4
10 -10z m-866 -30 c-6 -6 -10 -2 -11 12 -2 16 1 18 10 9 7 -7 8 -14 1 -21z
m762 -27 c-24 -12 -26 -17 -14 -31 11 -15 11 -15 -2 -6 -11 8 -82 12 -97 5
-12 -5 -17 2 -18 22 -1 13 4 24 11 24 7 0 11 -4 8 -8 -2 -4 0 -10 5 -13 5 -3
11 0 14 8 3 8 20 12 46 11 23 -1 44 2 47 7 3 4 10 5 16 2 6 -4 0 -13 -16 -21z
m-146 13 c0 -2 -7 -7 -16 -10 -8 -3 -12 -2 -9 4 6 10 25 14 25 6z m-30 -137
c0 -5 5 -7 10 -4 6 3 10 1 10 -4 0 -6 -5 -11 -11 -11 -5 0 -7 -5 -3 -11 4 -8
0 -8 -15 0 -25 14 -28 23 -3 14 15 -6 15 -5 3 10 -9 11 -10 17 -2 17 6 0 11
-5 11 -11z m16 -52 c7 2 11 -6 10 -20 0 -16 -6 -24 -16 -22 -8 1 -14 8 -12 15
2 7 -3 10 -12 7 -10 -4 -14 0 -13 13 1 13 5 16 17 11 8 -5 20 -6 26 -4z m-591
-7 c-3 -5 -12 -10 -18 -10 -7 0 -6 4 3 10 19 12 23 12 15 0z m20 -20 c-3 -5
-11 -10 -16 -10 -6 0 -7 5 -4 10 3 6 11 10 16 10 6 0 7 -4 4 -10z m130 -109
c3 -5 2 -12 -3 -15 -5 -3 -9 1 -9 9 0 17 3 19 12 6z m299 -9 c2 -4 0 -14 -6
-22 -8 -12 -9 -11 -4 4 5 13 2 17 -9 12 -8 -3 -15 -1 -15 4 0 12 27 13 34 2z
m19 -27 c-3 -9 -8 -14 -10 -11 -3 3 -2 9 2 15 9 16 15 13 8 -4z m-169 -37 c-3
-4 0 -8 5 -8 6 0 11 4 11 9 0 6 9 9 20 8 11 -1 20 -4 20 -8 0 -8 -29 -22 -48
-23 -7 -1 -17 -8 -22 -16 -6 -9 -10 -10 -10 -3 0 6 -8 10 -17 8 -13 -2 -18 4
-19 20 -2 19 3 22 31 22 19 -1 31 -5 29 -9z"/>
<path d="M3924 4129 c-3 -6 -2 -15 3 -20 5 -5 9 -1 9 11 0 23 -2 24 -12 9z"/>
<path d="M836 1802 c-3 -5 1 -9 9 -9 8 0 12 4 9 9 -3 4 -7 8 -9 8 -2 0 -6 -4
-9 -8z"/>
<path d="M2717 1353 c-11 -11 -8 -21 9 -27 13 -5 14 -4 6 7 -7 8 -9 17 -5 20
3 4 4 7 1 7 -2 0 -8 -3 -11 -7z"/>
<path d="M2086 1019 c2 -4 -2 -9 -8 -12 -7 -3 2 -4 20 -3 45 3 61 22 18 22
-19 0 -33 -3 -30 -7z"/>
<path d="M2043 1005 c0 -8 4 -12 9 -9 5 3 6 10 3 15 -9 13 -12 11 -12 -6z"/>
<path d="M1667 625 c5 -15 39 -13 36 1 -2 5 -11 9 -22 10 -12 1 -17 -4 -14
-11z"/>
<path d="M3827 4224 c-7 -8 3 -34 13 -34 9 0 8 26 -1 35 -3 3 -8 2 -12 -1z"/>
<path d="M4340 3820 c0 -5 -8 -7 -17 -4 -15 5 -16 4 -3 -5 13 -9 13 -11 0 -11
-12 -1 -11 -3 3 -11 22 -13 36 -4 34 21 -1 20 -17 29 -17 10z m10 -20 c0 -5
-5 -10 -11 -10 -5 0 -7 5 -4 10 3 6 8 10 11 10 2 0 4 -4 4 -10z"/>
<path d="M1095 3631 c-3 -5 -2 -12 3 -15 5 -3 9 1 9 9 0 17 -3 19 -12 6z"/>
<path d="M1220 3636 c0 -2 7 -7 16 -10 8 -3 12 -2 9 4 -6 10 -25 14 -25 6z"/>
<path d="M1190 3621 c0 -5 8 -15 18 -22 15 -12 16 -12 5 2 -7 9 -10 19 -6 22
3 4 1 7 -5 7 -7 0 -12 -4 -12 -9z"/>
<path d="M1529 3577 c-10 -24 -4 -34 18 -31 14 1 31 8 37 14 8 8 6 9 -8 4 -12
-4 -17 -4 -13 2 3 6 -3 11 -14 11 -10 1 -19 1 -20 0z m26 -17 c3 -6 -1 -7 -9
-4 -18 7 -21 14 -7 14 6 0 13 -4 16 -10z"/>
<path d="M4710 3566 c6 -6 5 -15 -3 -25 -10 -12 -9 -13 1 -7 7 4 19 2 27 -4
12 -10 14 -7 12 17 -2 23 -7 29 -24 29 -15 0 -20 -3 -13 -10z"/>
<path d="M865 3561 c-6 -11 13 -26 22 -17 4 3 0 6 -8 6 -11 0 -11 2 1 10 9 6
10 10 3 10 -6 0 -14 -4 -18 -9z"/>
<path d="M1633 3535 c0 -8 4 -12 9 -9 5 3 6 10 3 15 -9 13 -12 11 -12 -6z"/>
<path d="M733 3493 c0 -9 4 -10 14 -2 7 6 13 12 13 14 0 1 -6 2 -13 2 -8 0
-14 -6 -14 -14z"/>
<path d="M1850 3480 c8 -5 20 -10 25 -10 6 0 3 5 -5 10 -8 5 -19 10 -25 10 -5
0 -3 -5 5 -10z"/>
<path d="M2120 3444 c0 -6 7 -17 15 -24 8 -7 12 -17 8 -24 -3 -6 -2 -8 2 -3
12 10 14 47 2 40 -5 -3 -13 1 -18 8 -5 8 -9 9 -9 3z"/>
<path d="M4771 3434 c0 -11 3 -14 6 -6 3 7 2 16 -1 19 -3 4 -6 -2 -5 -13z"/>
<path d="M4793 3425 c0 -8 4 -15 9 -15 4 0 8 4 8 9 0 6 -4 12 -8 15 -5 3 -9
-1 -9 -9z"/>
<path d="M2102 3416 c10 -7 14 -17 10 -21 -4 -5 -1 -5 6 -1 10 6 10 11 1 22
-6 8 -17 14 -23 14 -6 0 -3 -7 6 -14z"/>
<path d="M4790 3380 c0 -5 5 -10 10 -10 6 0 10 5 10 10 0 6 -4 10 -10 10 -5 0
-10 -4 -10 -10z"/>
<path d="M2410 3376 c0 -2 8 -10 18 -17 15 -13 16 -12 3 4 -13 16 -21 21 -21
13z"/>
<path d="M2372 3355 c-19 -10 -20 -14 -8 -18 9 -4 16 -1 16 5 0 7 5 6 15 -2
20 -17 33 -4 14 14 -11 10 -19 11 -37 1z"/>
<path d="M4802 3340 c-18 -29 -15 -38 4 -12 9 13 14 25 12 27 -2 2 -9 -5 -16
-15z"/>
<path d="M2629 3310 c-5 -35 -3 -47 7 -47 14 0 14 18 1 28 -5 3 -1 9 8 12 9 4
13 3 10 -3 -3 -6 -1 -10 5 -10 6 0 9 -4 5 -9 -3 -5 -1 -12 4 -15 5 -4 8 2 6
11 -1 10 1 23 5 28 5 6 -3 10 -21 10 -16 1 -29 -2 -30 -5z"/>
<path d="M4715 3150 c3 -5 8 -10 11 -10 2 0 4 5 4 10 0 6 -5 10 -11 10 -5 0
-7 -4 -4 -10z"/>
<path d="M360 3100 c-9 -6 -10 -10 -3 -10 6 0 15 5 18 10 8 12 4 12 -15 0z"/>
<path d="M4312 3038 c2 -5 8 -9 13 -9 5 0 11 4 13 9 1 5 -4 9 -13 9 -9 0 -14
-4 -13 -9z"/>
<path d="M4068 2973 c7 -3 16 -2 19 1 4 3 -2 6 -13 5 -11 0 -14 -3 -6 -6z"/>
<path d="M4078 2953 c7 -3 16 -2 19 1 4 3 -2 6 -13 5 -11 0 -14 -3 -6 -6z"/>
<path d="M317 2893 c-4 -3 -7 -11 -7 -17 0 -6 5 -5 12 2 6 6 9 14 7 17 -3 3
-9 2 -12 -2z"/>
<path d="M3874 2838 c-4 -6 -3 -8 4 -4 5 3 13 0 15 -6 3 -8 6 -6 6 5 1 19 -14
23 -25 5z"/>
<path d="M3886 2798 c3 -5 10 -6 15 -3 13 9 11 12 -6 12 -8 0 -12 -4 -9 -9z"/>
<path d="M3817 2400 c3 -11 7 -20 9 -20 2 0 4 9 4 20 0 11 -4 20 -9 20 -5 0
-7 -9 -4 -20z"/>
<path d="M3795 2391 c-3 -5 -2 -12 3 -15 5 -3 9 1 9 9 0 17 -3 19 -12 6z"/>
<path d="M3808 2353 c6 -2 9 -10 6 -15 -4 -7 -2 -8 5 -4 13 9 5 26 -12 25 -9
0 -8 -2 1 -6z"/>
<path d="M3820 2310 c-6 -11 -8 -20 -6 -20 3 0 10 9 16 20 6 11 8 20 6 20 -3
0 -10 -9 -16 -20z"/>
<path d="M3833 2269 c-2 -23 3 -25 10 -4 4 8 3 16 -1 19 -4 3 -9 -4 -9 -15z"/>
<path d="M370 2240 c0 -5 5 -10 10 -10 6 0 10 5 10 10 0 6 -4 10 -10 10 -5 0
-10 -4 -10 -10z"/>
<path d="M3805 2240 c3 -5 8 -10 11 -10 2 0 4 5 4 10 0 6 -5 10 -11 10 -5 0
-7 -4 -4 -10z"/>
<path d="M346 2222 c-3 -5 1 -9 9 -9 8 0 12 4 9 9 -3 4 -7 8 -9 8 -2 0 -6 -4
-9 -8z"/>
<path d="M3800 2180 c-9 -6 -10 -10 -3 -10 6 0 15 5 18 10 8 12 4 12 -15 0z"/>
<path d="M3813 2145 c0 -8 4 -12 9 -9 5 3 6 10 3 15 -9 13 -12 11 -12 -6z"/>
<path d="M506 2054 c-8 -20 -8 -24 2 -24 4 0 8 9 9 20 2 24 -3 26 -11 4z"/>
<path d="M605 1920 c-3 -6 1 -7 9 -4 18 7 21 14 7 14 -6 0 -13 -4 -16 -10z"/>
<path d="M620 1906 c0 -2 7 -7 16 -10 8 -3 12 -2 9 4 -6 10 -25 14 -25 6z"/>
<path d="M674 1856 c1 -8 5 -18 8 -22 4 -3 5 1 4 10 -1 8 -5 18 -8 22 -4 3 -5
-1 -4 -10z"/>
<path d="M3680 1806 c0 -2 7 -7 16 -10 8 -3 12 -2 9 4 -6 10 -25 14 -25 6z"/>
<path d="M695 1780 c3 -5 8 -10 11 -10 2 0 4 5 4 10 0 6 -5 10 -11 10 -5 0 -7
-4 -4 -10z"/>
<path d="M3675 1781 c-3 -5 -2 -12 3 -15 5 -3 9 1 9 9 0 17 -3 19 -12 6z"/>
<path d="M977 1736 c-3 -7 1 -20 9 -31 8 -10 14 -15 14 -9 0 5 5 2 10 -6 7
-11 10 -11 10 -2 0 8 5 10 13 6 6 -4 3 2 -7 14 -20 23 -9 31 12 10 8 -8 12 -9
12 -1 0 6 -6 13 -12 16 -7 3 -3 4 9 4 17 -1 20 -5 12 -18 -13 -26 -11 -30 9
-18 10 6 18 19 19 28 1 13 -9 16 -52 17 -33 1 -56 -3 -58 -10z m30 -3 c-4 -3
-1 -13 6 -21 10 -13 9 -14 -11 -3 -22 12 -22 31 0 31 6 0 8 -3 5 -7z"/>
<path d="M796 1713 c-6 -14 -5 -15 5 -6 7 7 10 15 7 18 -3 3 -9 -2 -12 -12z"/>
<path d="M3607 1724 c-7 -8 3 -34 13 -34 5 0 8 9 7 20 -1 20 -8 25 -20 14z"/>
<path d="M615 1711 c-3 -5 -2 -12 3 -15 5 -3 9 1 9 9 0 17 -3 19 -12 6z"/>
<path d="M656 1693 c-6 -14 -5 -15 5 -6 7 7 10 15 7 18 -3 3 -9 -2 -12 -12z"/>
<path d="M948 1703 c6 -2 9 -10 6 -15 -4 -7 -2 -8 4 -4 18 11 14 26 -5 25 -11
0 -13 -3 -5 -6z"/>
<path d="M910 1696 c0 -2 8 -10 18 -17 15 -13 16 -12 3 4 -13 16 -21 21 -21
13z"/>
<path d="M747 1659 c7 -7 15 -10 18 -7 3 3 -2 9 -12 12 -14 6 -15 5 -6 -5z"/>
<path d="M1216 1662 c-2 -4 0 -14 6 -22 8 -12 9 -12 5 2 -3 9 -1 19 6 22 9 3
9 5 0 5 -6 1 -14 -3 -17 -7z"/>
<path d="M876 1633 c-6 -14 -5 -15 5 -6 7 7 10 15 7 18 -3 3 -9 -2 -12 -12z"/>
<path d="M1153 1625 c0 -8 4 -12 9 -9 5 3 6 10 3 15 -9 13 -12 11 -12 -6z"/>
<path d="M1445 1610 c-3 -5 -5 -10 -3 -11 33 -8 38 -7 27 7 -14 17 -16 17 -24
4z"/>
<path d="M616 1602 c-3 -5 1 -9 9 -9 8 0 12 4 9 9 -3 4 -7 8 -9 8 -2 0 -6 -4
-9 -8z"/>
<path d="M1096 1593 c-6 -14 -5 -15 5 -6 7 7 10 15 7 18 -3 3 -9 -2 -12 -12z"/>
<path d="M1266 1598 c3 -5 10 -6 15 -3 13 9 11 12 -6 12 -8 0 -12 -4 -9 -9z"/>
<path d="M1356 1598 c3 -5 10 -6 15 -3 13 9 11 12 -6 12 -8 0 -12 -4 -9 -9z"/>
<path d="M3560 1595 c-7 -9 -11 -17 -9 -20 3 -2 10 5 17 15 14 24 10 26 -8 5z"/>
<path d="M1393 1574 c0 -13 3 -27 8 -30 5 -3 6 2 3 10 -3 9 -1 16 5 16 6 0 11
-5 11 -12 0 -6 3 -8 7 -5 3 4 -3 16 -14 26 -20 19 -20 19 -20 -5z"/>
<path d="M827 1579 c7 -7 15 -10 18 -7 3 3 -2 9 -12 12 -14 6 -15 5 -6 -5z"/>
<path d="M1351 1569 c5 -10 12 -19 15 -19 3 0 3 4 0 9 -4 5 -1 11 6 13 7 3 3
7 -10 10 -19 5 -20 4 -11 -13z"/>
<path d="M3577 1583 c-4 -3 -7 -11 -7 -17 0 -6 5 -5 12 2 6 6 9 14 7 17 -3 3
-9 2 -12 -2z"/>
<path d="M894 1566 c1 -8 5 -18 8 -22 4 -3 5 1 4 10 -1 8 -5 18 -8 22 -4 3 -5
-1 -4 -10z"/>
<path d="M650 1561 c0 -6 4 -13 10 -16 6 -3 7 1 4 9 -7 18 -14 21 -14 7z"/>
<path d="M725 1559 c-3 -4 2 -6 10 -5 21 3 28 13 10 13 -9 0 -18 -4 -20 -8z"/>
<path d="M985 1540 c-3 -6 1 -7 9 -4 18 7 21 14 7 14 -6 0 -13 -4 -16 -10z"/>
<path d="M1550 1542 c0 -5 7 -9 15 -9 8 0 12 4 9 9 -3 4 -9 8 -15 8 -5 0 -9
-4 -9 -8z"/>
<path d="M3496 1543 c-10 -10 -7 -33 4 -33 5 0 7 7 4 15 -5 11 -2 13 10 9 9
-3 16 -4 16 -1 0 8 -28 16 -34 10z"/>
<path d="M1606 1525 c-11 -8 -15 -15 -9 -15 6 0 16 7 23 15 16 19 11 19 -14 0z"/>
<path d="M1646 1525 c-9 -26 -7 -32 5 -12 6 10 9 21 6 23 -2 3 -7 -2 -11 -11z"/>
<path d="M773 1516 c-3 -6 -3 -8 2 -4 4 4 13 3 20 -2 8 -7 12 -5 12 3 0 16
-25 18 -34 3z"/>
<path d="M1667 1506 c-4 -10 -1 -13 9 -9 15 6 19 23 5 23 -5 0 -11 -7 -14 -14z"/>
<path d="M560 1500 c-12 -7 -10 -9 7 -7 12 0 19 5 17 9 -6 10 -6 10 -24 -2z"/>
<path d="M870 1496 c0 -2 8 -10 18 -17 15 -13 16 -12 3 4 -13 16 -21 21 -21
13z"/>
<path d="M919 1498 c-5 -18 -6 -38 -1 -34 7 8 12 36 6 36 -2 0 -4 -1 -5 -2z"/>
<path d="M1135 1489 c-4 -6 -5 -12 -2 -15 2 -3 7 2 10 11 7 17 1 20 -8 4z"/>
<path d="M1255 1489 c-4 -6 -5 -12 -2 -15 2 -3 7 2 10 11 7 17 1 20 -8 4z"/>
<path d="M1500 1486 c0 -2 8 -10 18 -17 15 -13 16 -12 3 4 -13 16 -21 21 -21
13z"/>
<path d="M3346 1474 c-8 -22 2 -40 25 -41 15 -1 19 2 14 18 -5 15 -3 18 12 13
15 -5 15 -3 -2 7 -28 18 -43 19 -49 3z m34 2 c0 -2 -8 -10 -17 -17 -16 -13
-17 -12 -4 4 13 16 21 21 21 13z"/>
<path d="M936 1433 c-6 -14 -5 -15 5 -6 7 7 10 15 7 18 -3 3 -9 -2 -12 -12z"/>
<path d="M1281 1436 c-9 -11 -9 -16 1 -22 7 -4 10 -4 6 1 -4 4 -3 14 3 22 6 7
9 13 6 13 -2 0 -10 -6 -16 -14z"/>
<path d="M1510 1446 c0 -2 7 -7 16 -10 8 -3 12 -2 9 4 -6 10 -25 14 -25 6z"/>
<path d="M3450 1441 c0 -6 4 -12 8 -15 5 -3 9 1 9 9 0 8 -4 15 -9 15 -4 0 -8
-4 -8 -9z"/>
<path d="M1320 1420 c-9 -6 -10 -10 -3 -10 6 0 15 5 18 10 8 12 4 12 -15 0z"/>
<path d="M836 1407 c3 -10 9 -15 12 -12 3 3 0 11 -7 18 -10 9 -11 8 -5 -6z"/>
<path d="M1499 1418 c-5 -18 -6 -38 -1 -34 7 8 12 36 6 36 -2 0 -4 -1 -5 -2z"/>
<path d="M1695 1411 c-3 -5 -2 -12 3 -15 5 -3 9 1 9 9 0 17 -3 19 -12 6z"/>
<path d="M1730 1416 c0 -2 8 -10 18 -17 15 -13 16 -12 3 4 -13 16 -21 21 -21
13z"/>
<path d="M3315 1411 c-3 -5 -2 -12 3 -15 5 -3 9 1 9 9 0 17 -3 19 -12 6z"/>
<path d="M3550 1416 c0 -2 8 -10 18 -17 15 -13 16 -12 3 4 -13 16 -21 21 -21
13z"/>
<path d="M616 1393 c-6 -14 -5 -15 5 -6 7 7 10 15 7 18 -3 3 -9 -2 -12 -12z"/>
<path d="M646 1402 c-3 -5 1 -9 9 -9 8 0 12 4 9 9 -3 4 -7 8 -9 8 -2 0 -6 -4
-9 -8z"/>
<path d="M1096 1393 c-6 -14 -5 -15 5 -6 7 7 10 15 7 18 -3 3 -9 -2 -12 -12z"/>
<path d="M1236 1393 c-6 -14 -5 -15 5 -6 7 7 10 15 7 18 -3 3 -9 -2 -12 -12z"/>
<path d="M3270 1405 c0 -5 5 -17 10 -25 5 -8 10 -10 10 -5 0 6 -5 17 -10 25
-5 8 -10 11 -10 5z"/>
<path d="M3453 1395 c0 -8 4 -12 9 -9 5 3 6 10 3 15 -9 13 -12 11 -12 -6z"/>
<path d="M1555 1391 c-3 -5 -2 -12 3 -15 5 -3 9 1 9 9 0 17 -3 19 -12 6z"/>
<path d="M3514 1386 c1 -8 5 -18 8 -22 4 -3 5 1 4 10 -1 8 -5 18 -8 22 -4 3
-5 -1 -4 -10z"/>
<path d="M3553 1375 c0 -8 4 -12 9 -9 5 3 6 10 3 15 -9 13 -12 11 -12 -6z"/>
<path d="M1715 1349 c-4 -6 -5 -12 -2 -15 2 -3 7 2 10 11 7 17 1 20 -8 4z"/>
<path d="M2436 1351 c-3 -5 1 -11 9 -14 9 -4 12 -1 8 9 -6 16 -10 17 -17 5z"/>
<path d="M3153 1347 c0 -8 6 -14 14 -14 9 0 10 4 2 14 -6 7 -12 13 -14 13 -1
0 -2 -6 -2 -13z"/>
<path d="M596 1327 c3 -10 9 -15 12 -12 3 3 0 11 -7 18 -10 9 -11 8 -5 -6z"/>
<path d="M855 1329 c-4 -6 -5 -12 -2 -15 2 -3 7 2 10 11 7 17 1 20 -8 4z"/>
<path d="M2478 1333 c7 -3 16 -2 19 1 4 3 -2 6 -13 5 -11 0 -14 -3 -6 -6z"/>
<path d="M2540 1336 c0 -2 7 -7 16 -10 8 -3 12 -2 9 4 -6 10 -25 14 -25 6z"/>
<path d="M684 1322 c4 -3 14 -7 22 -8 9 -1 13 0 10 4 -4 3 -14 7 -22 8 -9 1
-13 0 -10 -4z"/>
<path d="M816 1313 c-6 -14 -5 -15 5 -6 7 7 10 15 7 18 -3 3 -9 -2 -12 -12z"/>
<path d="M936 1313 c-6 -14 -5 -15 5 -6 7 7 10 15 7 18 -3 3 -9 -2 -12 -12z"/>
<path d="M990 1321 c0 -6 4 -13 10 -16 6 -3 7 1 4 9 -7 18 -14 21 -14 7z"/>
<path d="M1159 1313 c-13 -16 -12 -17 4 -4 9 7 17 15 17 17 0 8 -8 3 -21 -13z"/>
<path d="M1195 1321 c-3 -5 -2 -12 3 -15 5 -3 9 1 9 9 0 17 -3 19 -12 6z"/>
<path d="M1281 1316 c-9 -11 -9 -16 1 -22 7 -4 10 -4 6 1 -4 4 -3 14 3 22 6 7
9 13 6 13 -2 0 -10 -6 -16 -14z"/>
<path d="M1536 1322 c-3 -5 1 -9 9 -9 8 0 12 4 9 9 -3 4 -7 8 -9 8 -2 0 -6 -4
-9 -8z"/>
<path d="M3220 1326 c0 -2 8 -10 18 -17 15 -13 16 -12 3 4 -13 16 -21 21 -21
13z"/>
<path d="M3435 1320 c3 -5 8 -10 11 -10 2 0 4 5 4 10 0 6 -5 10 -11 10 -5 0
-7 -4 -4 -10z"/>
<path d="M3473 1311 c0 -11 5 -18 9 -15 4 3 5 11 1 19 -7 21 -12 19 -10 -4z"/>
<path d="M3559 1313 c-12 -16 -12 -17 2 -6 9 7 20 9 24 5 5 -4 5 -1 1 6 -9 16
-11 15 -27 -5z"/>
<path d="M1433 1305 c0 -8 4 -12 9 -9 5 3 6 10 3 15 -9 13 -12 11 -12 -6z"/>
<path d="M3199 1318 c-5 -18 -6 -38 -1 -34 7 8 12 36 6 36 -2 0 -4 -1 -5 -2z"/>
<path d="M1559 1293 c-13 -16 -12 -17 4 -4 9 7 17 15 17 17 0 8 -8 3 -21 -13z"/>
<path d="M1698 1298 c10 -10 8 -16 -10 -31 -13 -10 -17 -16 -8 -15 8 2 22 12
32 23 18 21 26 8 8 -13 -5 -7 -3 -6 5 1 10 8 13 20 9 31 -5 14 -9 15 -15 4 -7
-10 -9 -10 -9 0 0 6 -5 12 -12 12 -9 0 -9 -3 0 -12z"/>
<path d="M2518 1303 c7 -3 16 -2 19 1 4 3 -2 6 -13 5 -11 0 -14 -3 -6 -6z"/>
<path d="M2558 1303 c7 -3 16 -2 19 1 4 3 -2 6 -13 5 -11 0 -14 -3 -6 -6z"/>
<path d="M2598 1303 c7 -3 16 -2 19 1 4 3 -2 6 -13 5 -11 0 -14 -3 -6 -6z"/>
<path d="M3270 1306 c0 -2 7 -7 16 -10 8 -3 12 -2 9 4 -6 10 -25 14 -25 6z"/>
<path d="M3613 1295 c0 -8 4 -12 9 -9 5 3 6 10 3 15 -9 13 -12 11 -12 -6z"/>
<path d="M1587 1286 c-4 -10 -1 -13 8 -9 8 3 12 9 9 14 -7 12 -11 11 -17 -5z"/>
<path d="M1624 1289 c3 -16 36 -20 55 -8 12 7 7 8 -16 5 -18 -2 -34 0 -37 5
-2 5 -3 4 -2 -2z"/>
<path d="M616 1279 c4 -8 30 -6 38 2 3 3 -5 5 -19 5 -13 0 -22 -3 -19 -7z"/>
<path d="M970 1281 c0 -6 4 -13 10 -16 6 -3 7 1 4 9 -7 18 -14 21 -14 7z"/>
<path d="M1467 1279 c7 -7 15 -10 18 -7 3 3 -2 9 -12 12 -14 6 -15 5 -6 -5z"/>
<path d="M1530 1281 c0 -6 4 -13 10 -16 6 -3 7 1 4 9 -7 18 -14 21 -14 7z"/>
<path d="M2590 1281 c0 -6 4 -13 10 -16 6 -3 7 1 4 9 -7 18 -14 21 -14 7z"/>
<path d="M3067 1279 c7 -7 15 -10 18 -7 3 3 -2 9 -12 12 -14 6 -15 5 -6 -5z"/>
<path d="M3345 1279 c-3 -4 2 -6 10 -5 21 3 28 13 10 13 -9 0 -18 -4 -20 -8z"/>
<path d="M3557 1275 c-4 -8 -3 -16 1 -19 4 -3 9 4 9 15 2 23 -3 25 -10 4z"/>
<path d="M1435 1271 c-3 -5 -2 -12 3 -15 5 -3 9 1 9 9 0 17 -3 19 -12 6z"/>
<path d="M3273 1265 c0 -8 4 -12 9 -9 5 3 6 10 3 15 -9 13 -12 11 -12 -6z"/>
<path d="M1618 1258 c5 -5 16 -8 23 -6 8 3 3 7 -10 11 -17 4 -21 3 -13 -5z"/>
<path d="M3400 1260 c-9 -6 -10 -10 -3 -10 6 0 15 5 18 10 8 12 4 12 -15 0z"/>
<path d="M756 1247 c3 -10 9 -15 12 -12 3 3 0 11 -7 18 -10 9 -11 8 -5 -6z"/>
<path d="M914 1240 c0 -13 4 -16 10 -10 7 7 7 13 0 20 -6 6 -10 3 -10 -10z"/>
<path d="M1079 1258 c-5 -9 -5 -48 -1 -43 6 6 11 45 5 45 -2 0 -4 -1 -4 -2z"/>
<path d="M1473 1240 c-1 -11 2 -22 8 -25 5 -4 6 2 2 11 -5 13 -3 15 8 9 12 -8
12 -6 0 8 -17 21 -16 21 -18 -3z"/>
<path d="M2753 1245 c0 -8 4 -12 9 -9 5 3 6 10 3 15 -9 13 -12 11 -12 -6z"/>
<path d="M2990 1256 c0 -2 8 -10 18 -17 15 -13 16 -12 3 4 -13 16 -21 21 -21
13z"/>
<path d="M786 1242 c-3 -5 1 -9 9 -9 8 0 15 4 15 9 0 4 -4 8 -9 8 -6 0 -12 -4
-15 -8z"/>
<path d="M2720 1240 c-9 -6 -10 -10 -3 -10 6 0 15 5 18 10 8 12 4 12 -15 0z"/>
<path d="M2837 1235 c-4 -8 -3 -16 1 -19 4 -3 9 4 9 15 2 23 -3 25 -10 4z"/>
<path d="M2870 1241 c0 -6 4 -13 10 -16 6 -3 7 1 4 9 -7 18 -14 21 -14 7z"/>
<path d="M3185 1219 c-3 -4 2 -6 10 -5 21 3 28 13 10 13 -9 0 -18 -4 -20 -8z"/>
<path d="M3570 1219 c0 -5 5 -7 10 -4 6 3 10 8 10 11 0 2 -4 4 -10 4 -5 0 -10
-5 -10 -11z"/>
<path d="M556 1207 c3 -10 9 -15 12 -12 3 3 0 11 -7 18 -10 9 -11 8 -5 -6z"/>
<path d="M1279 1193 c-13 -16 -12 -17 4 -4 9 7 17 15 17 17 0 8 -8 3 -21 -13z"/>
<path d="M1435 1200 c-3 -5 -1 -10 4 -10 6 0 11 5 11 10 0 6 -2 10 -4 10 -3 0
-8 -4 -11 -10z"/>
<path d="M2706 1202 c-2 -4 4 -8 14 -8 10 0 16 4 14 8 -3 4 -9 8 -14 8 -5 0
-11 -4 -14 -8z"/>
<path d="M3116 1202 c-3 -5 1 -9 9 -9 8 0 12 4 9 9 -3 4 -7 8 -9 8 -2 0 -6 -4
-9 -8z"/>
<path d="M3450 1201 c0 -6 4 -13 10 -16 6 -3 7 1 4 9 -7 18 -14 21 -14 7z"/>
<path d="M1347 1179 c7 -7 15 -10 18 -7 3 3 -2 9 -12 12 -14 6 -15 5 -6 -5z"/>
<path d="M2553 1175 c0 -8 4 -12 9 -9 5 3 6 10 3 15 -9 13 -12 11 -12 -6z"/>
<path d="M2587 1179 c7 -7 15 -10 18 -7 3 3 -2 9 -12 12 -14 6 -15 5 -6 -5z"/>
<path d="M3040 1180 c-9 -6 -10 -10 -3 -10 6 0 15 5 18 10 8 12 4 12 -15 0z"/>
<path d="M3566 1178 c3 -5 10 -6 15 -3 13 9 11 12 -6 12 -8 0 -12 -4 -9 -9z"/>
<path d="M2494 1166 c1 -8 5 -18 8 -22 4 -3 5 1 4 10 -1 8 -5 18 -8 22 -4 3
-5 -1 -4 -10z"/>
<path d="M2999 1178 c-5 -9 -5 -48 -1 -43 6 6 11 45 5 45 -2 0 -4 -1 -4 -2z"/>
<path d="M600 1166 c0 -2 8 -10 18 -17 15 -13 16 -12 3 4 -13 16 -21 21 -21
13z"/>
<path d="M740 1166 c0 -2 8 -10 18 -17 15 -13 16 -12 3 4 -13 16 -21 21 -21
13z"/>
<path d="M841 1156 c-9 -11 -9 -16 1 -22 7 -4 10 -4 6 1 -4 4 -3 14 3 22 6 7
9 13 6 13 -2 0 -10 -6 -16 -14z"/>
<path d="M870 1161 c0 -6 4 -13 10 -16 6 -3 7 1 4 9 -7 18 -14 21 -14 7z"/>
<path d="M959 1153 c-13 -16 -12 -17 4 -4 9 7 17 15 17 17 0 8 -8 3 -21 -13z"/>
<path d="M990 1161 c0 -6 4 -13 10 -16 6 -3 7 1 4 9 -7 18 -14 21 -14 7z"/>
<path d="M1079 1153 c-13 -16 -12 -17 4 -4 9 7 17 15 17 17 0 8 -8 3 -21 -13z"/>
<path d="M1136 1162 c-3 -5 1 -9 9 -9 8 0 12 4 9 9 -3 4 -7 8 -9 8 -2 0 -6 -4
-9 -8z"/>
<path d="M1255 1159 c-3 -4 2 -6 10 -5 21 3 28 13 10 13 -9 0 -18 -4 -20 -8z"/>
<path d="M1380 1155 c-19 -22 -8 -25 13 -3 9 10 13 18 8 18 -5 0 -14 -7 -21
-15z"/>
<path d="M2707 1159 c7 -7 15 -10 18 -7 3 3 -2 9 -12 12 -14 6 -15 5 -6 -5z"/>
<path d="M3113 1151 c0 -11 5 -18 9 -15 4 3 5 11 1 19 -7 21 -12 19 -10 -4z"/>
<path d="M3196 1153 c-6 -14 -5 -15 5 -6 7 7 10 15 7 18 -3 3 -9 -2 -12 -12z"/>
<path d="M3316 1153 c-6 -14 -5 -15 5 -6 7 7 10 15 7 18 -3 3 -9 -2 -12 -12z"/>
<path d="M575 1151 c-3 -5 -2 -12 3 -15 5 -3 9 1 9 9 0 17 -3 19 -12 6z"/>
<path d="M2630 1146 c0 -2 7 -7 16 -10 8 -3 12 -2 9 4 -6 10 -25 14 -25 6z"/>
<path d="M3505 1140 c-3 -6 1 -7 9 -4 18 7 21 14 7 14 -6 0 -13 -4 -16 -10z"/>
<path d="M1186 1119 c2 -4 13 -7 24 -6 23 2 17 10 -10 12 -10 1 -17 -2 -14 -6z"/>
<path d="M2705 1120 c-3 -6 1 -7 9 -4 18 7 21 14 7 14 -6 0 -13 -4 -16 -10z"/>
<path d="M794 1106 c1 -8 5 -18 8 -22 4 -3 5 1 4 10 -1 8 -5 18 -8 22 -4 3 -5
-1 -4 -10z"/>
<path d="M1033 1105 c0 -8 4 -12 9 -9 5 3 6 10 3 15 -9 13 -12 11 -12 -6z"/>
<path d="M3039 1118 c-5 -18 -6 -38 -1 -34 7 8 12 36 6 36 -2 0 -4 -1 -5 -2z"/>
<path d="M3575 1109 c-4 -6 -5 -12 -2 -15 2 -3 7 2 10 11 7 17 1 20 -8 4z"/>
<path d="M2355 1101 c-3 -5 -2 -12 3 -15 5 -3 9 1 9 9 0 17 -3 19 -12 6z"/>
<path d="M3147 1099 c7 -7 15 -10 18 -7 3 3 -2 9 -12 12 -14 6 -15 5 -6 -5z"/>
<path d="M635 1089 c-4 -6 -5 -12 -2 -15 2 -3 7 2 10 11 7 17 1 20 -8 4z"/>
<path d="M2515 1091 c-3 -5 -2 -12 3 -15 5 -3 9 1 9 9 0 17 -3 19 -12 6z"/>
<path d="M1353 1075 c0 -8 4 -12 9 -9 5 3 6 10 3 15 -9 13 -12 11 -12 -6z"/>
<path d="M2390 1078 c0 -4 4 -8 9 -8 6 0 12 4 15 8 3 5 -1 9 -9 9 -8 0 -15 -4
-15 -9z"/>
<path d="M1039 1078 c-5 -18 -6 -38 -1 -34 7 8 12 36 6 36 -2 0 -4 -1 -5 -2z"/>
<path d="M2336 1067 c3 -10 9 -15 12 -12 3 3 0 11 -7 18 -10 9 -11 8 -5 -6z"/>
<path d="M2794 1066 c1 -8 5 -18 8 -22 4 -3 5 1 4 10 -1 8 -5 18 -8 22 -4 3
-5 -1 -4 -10z"/>
<path d="M3274 1066 c1 -8 5 -18 8 -22 4 -3 5 1 4 10 -1 8 -5 18 -8 22 -4 3
-5 -1 -4 -10z"/>
<path d="M3513 1065 c0 -8 4 -12 9 -9 5 3 6 10 3 15 -9 13 -12 11 -12 -6z"/>
<path d="M953 1055 c0 -8 4 -12 9 -9 5 3 6 10 3 15 -9 13 -12 11 -12 -6z"/>
<path d="M2281 1044 c0 -11 3 -14 6 -6 3 7 2 16 -1 19 -3 4 -6 -2 -5 -13z"/>
<path d="M676 1033 c-6 -14 -5 -15 5 -6 7 7 10 15 7 18 -3 3 -9 -2 -12 -12z"/>
<path d="M1333 1033 c0 -10 4 -10 16 -1 9 7 18 13 20 15 2 1 -5 1 -16 0 -11 0
-20 -7 -20 -14z"/>
<path d="M2386 1042 c-2 -4 4 -8 14 -8 10 0 16 4 14 8 -3 4 -9 8 -14 8 -5 0
-11 -4 -14 -8z"/>
<path d="M3434 1042 c4 -3 14 -7 22 -8 9 -1 13 0 10 4 -4 3 -14 7 -22 8 -9 1
-13 0 -10 -4z"/>
<path d="M1274 1026 c1 -8 5 -18 8 -22 4 -3 5 1 4 10 -1 8 -5 18 -8 22 -4 3
-5 -1 -4 -10z"/>
<path d="M3509 1023 c-13 -16 -12 -17 4 -4 16 13 21 21 13 21 -2 0 -10 -8 -17
-17z"/>
<path d="M1160 1020 c-9 -6 -10 -10 -3 -10 6 0 15 5 18 10 8 12 4 12 -15 0z"/>
<path d="M2215 1020 c3 -5 8 -10 11 -10 2 0 4 5 4 10 0 6 -5 10 -11 10 -5 0
-7 -4 -4 -10z"/>
<path d="M2593 1015 c0 -8 4 -12 9 -9 5 3 6 10 3 15 -9 13 -12 11 -12 -6z"/>
<path d="M2754 1016 c1 -8 5 -18 8 -22 4 -3 5 1 4 10 -1 8 -5 18 -8 22 -4 3
-5 -1 -4 -10z"/>
<path d="M3234 1016 c1 -8 5 -18 8 -22 4 -3 5 1 4 10 -1 8 -5 18 -8 22 -4 3
-5 -1 -4 -10z"/>
<path d="M869 1003 c-13 -16 -12 -17 4 -4 9 7 17 15 17 17 0 8 -8 3 -21 -13z"/>
<path d="M1073 1005 c0 -8 4 -12 9 -9 5 3 6 10 3 15 -9 13 -12 11 -12 -6z"/>
<path d="M1355 1009 c-4 -6 -5 -12 -2 -15 2 -3 7 2 10 11 7 17 1 20 -8 4z"/>
<path d="M2255 1009 c-4 -6 -5 -12 -2 -15 2 -3 7 2 10 11 7 17 1 20 -8 4z"/>
<path d="M2953 1005 c0 -8 4 -15 9 -15 4 0 8 4 8 9 0 6 -4 12 -8 15 -5 3 -9
-1 -9 -9z"/>
<path d="M3310 1016 c0 -2 8 -10 18 -17 15 -13 16 -12 3 4 -13 16 -21 21 -21
13z"/>
<path d="M835 1001 c-3 -5 -2 -12 3 -15 5 -3 9 1 9 9 0 17 -3 19 -12 6z"/>
<path d="M955 1001 c-3 -5 -2 -12 3 -15 5 -3 9 1 9 9 0 17 -3 19 -12 6z"/>
<path d="M2190 1000 c0 -5 5 -10 10 -10 6 0 10 5 10 10 0 6 -4 10 -10 10 -5 0
-10 -4 -10 -10z"/>
<path d="M2276 1002 c-3 -5 1 -9 9 -9 8 0 12 4 9 9 -3 4 -7 8 -9 8 -2 0 -6 -4
-9 -8z"/>
<path d="M3184 1002 c4 -3 14 -7 22 -8 9 -1 13 0 10 4 -4 3 -14 7 -22 8 -9 1
-13 0 -10 -4z"/>
<path d="M1193 985 c0 -8 4 -12 9 -9 5 3 6 10 3 15 -9 13 -12 11 -12 -6z"/>
<path d="M1230 986 c0 -2 7 -7 16 -10 8 -3 12 -2 9 4 -6 10 -25 14 -25 6z"/>
<path d="M1305 980 c-3 -6 1 -7 9 -4 18 7 21 14 7 14 -6 0 -13 -4 -16 -10z"/>
<path d="M2235 970 c10 -11 20 -20 23 -20 3 0 -3 9 -13 20 -10 11 -20 20 -23
20 -3 0 3 -9 13 -20z"/>
<path d="M2876 978 c3 -5 10 -6 15 -3 13 9 11 12 -6 12 -8 0 -12 -4 -9 -9z"/>
<path d="M630 976 c0 -2 8 -10 18 -17 15 -13 16 -12 3 4 -13 16 -21 21 -21 13z"/>
<path d="M675 971 c-3 -5 -2 -12 3 -15 5 -3 9 1 9 9 0 17 -3 19 -12 6z"/>
<path d="M1330 970 c-9 -6 -10 -10 -3 -10 6 0 15 5 18 10 8 12 4 12 -15 0z"/>
<path d="M2395 970 c-4 -6 -11 -7 -17 -4 -7 4 -8 2 -4 -5 6 -9 11 -9 22 0 14
11 18 19 10 19 -3 0 -8 -5 -11 -10z"/>
<path d="M3295 969 c-4 -6 -5 -12 -2 -15 2 -3 7 2 10 11 7 17 1 20 -8 4z"/>
<path d="M810 961 c0 -6 4 -13 10 -16 6 -3 7 1 4 9 -7 18 -14 21 -14 7z"/>
<path d="M1119 953 c-13 -16 -12 -17 4 -4 9 7 17 15 17 17 0 8 -8 3 -21 -13z"/>
<path d="M2536 962 c-3 -5 1 -9 9 -9 8 0 12 4 9 9 -3 4 -7 8 -9 8 -2 0 -6 -4
-9 -8z"/>
<path d="M2696 962 c-3 -4 4 -9 15 -9 23 -2 25 3 4 10 -8 4 -16 3 -19 -1z"/>
<path d="M3120 960 c-12 -7 -10 -9 7 -7 12 0 19 5 17 9 -6 10 -6 10 -24 -2z"/>
<path d="M1350 943 c0 -5 5 -15 10 -23 7 -12 9 -10 7 8 -1 19 -17 33 -17 15z"/>
<path d="M2427 939 c7 -7 15 -10 18 -7 3 3 -2 9 -12 12 -14 6 -15 5 -6 -5z"/>
<path d="M2587 939 c7 -7 15 -10 18 -7 3 3 -2 9 -12 12 -14 6 -15 5 -6 -5z"/>
<path d="M2840 940 c-9 -6 -10 -10 -3 -10 6 0 15 5 18 10 8 12 4 12 -15 0z"/>
<path d="M2875 941 c-3 -5 -2 -12 3 -15 5 -3 9 1 9 9 0 17 -3 19 -12 6z"/>
<path d="M2995 941 c-3 -5 -2 -12 3 -15 5 -3 9 1 9 9 0 17 -3 19 -12 6z"/>
<path d="M3030 946 c0 -2 7 -7 16 -10 8 -3 12 -2 9 4 -6 10 -25 14 -25 6z"/>
<path d="M915 929 c-4 -6 -5 -12 -2 -15 2 -3 7 2 10 11 7 17 1 20 -8 4z"/>
<path d="M1054 926 c1 -8 5 -18 8 -22 4 -3 5 1 4 10 -1 8 -5 18 -8 22 -4 3 -5
-1 -4 -10z"/>
<path d="M2779 938 c-5 -18 -6 -38 -1 -34 7 8 12 36 6 36 -2 0 -4 -1 -5 -2z"/>
<path d="M1290 921 c0 -6 4 -13 10 -16 6 -3 7 1 4 9 -7 18 -14 21 -14 7z"/>
<path d="M2325 919 c-3 -4 2 -6 10 -5 21 3 28 13 10 13 -9 0 -18 -4 -20 -8z"/>
<path d="M3335 920 c-2 -3 5 -6 15 -7 11 -1 22 2 24 5 3 4 -4 8 -15 8 -11 0
-22 -3 -24 -6z"/>
<path d="M2873 895 c0 -8 4 -12 9 -9 5 3 6 10 3 15 -9 13 -12 11 -12 -6z"/>
<path d="M3265 899 c-3 -4 2 -6 10 -5 21 3 28 13 10 13 -9 0 -18 -4 -20 -8z"/>
<path d="M1176 887 c3 -10 9 -15 12 -12 3 3 0 11 -7 18 -10 9 -11 8 -5 -6z"/>
<path d="M2495 889 c-4 -6 -5 -12 -2 -15 2 -3 7 2 10 11 7 17 1 20 -8 4z"/>
<path d="M2655 889 c-4 -6 -5 -12 -2 -15 2 -3 7 2 10 11 7 17 1 20 -8 4z"/>
<path d="M2375 879 c-3 -4 2 -6 10 -5 21 3 28 13 10 13 -9 0 -18 -4 -20 -8z"/>
<path d="M2950 876 c7 -7 13 -7 20 0 6 6 3 10 -10 10 -13 0 -16 -4 -10 -10z"/>
<path d="M3184 882 c4 -3 14 -7 22 -8 9 -1 13 0 10 4 -4 3 -14 7 -22 8 -9 1
-13 0 -10 -4z"/>
<path d="M670 859 c0 -5 5 -7 10 -4 6 3 10 8 10 11 0 2 -4 4 -10 4 -5 0 -10
-5 -10 -11z"/>
<path d="M2880 860 c-9 -6 -10 -10 -3 -10 6 0 15 5 18 10 8 12 4 12 -15 0z"/>
<path d="M3000 860 c-9 -6 -10 -10 -3 -10 6 0 15 5 18 10 8 12 4 12 -15 0z"/>
<path d="M3120 860 c-9 -6 -10 -10 -3 -10 6 0 15 5 18 10 8 12 4 12 -15 0z"/>
<path d="M3495 860 c-3 -5 -1 -10 4 -10 6 0 11 5 11 10 0 6 -2 10 -4 10 -3 0
-8 -4 -11 -10z"/>
<path d="M776 847 c3 -10 9 -15 12 -12 3 3 0 11 -7 18 -10 9 -11 8 -5 -6z"/>
<path d="M1034 840 c0 -13 4 -16 10 -10 7 7 7 13 0 20 -6 6 -10 3 -10 -10z"/>
<path d="M1274 840 c0 -13 4 -16 10 -10 7 7 7 13 0 20 -6 6 -10 3 -10 -10z"/>
<path d="M2675 849 c-4 -6 -5 -12 -2 -15 2 -3 7 2 10 11 7 17 1 20 -8 4z"/>
<path d="M2789 843 c-13 -16 -12 -17 4 -4 16 13 21 21 13 21 -2 0 -10 -8 -17
-17z"/>
<path d="M2949 843 c-13 -16 -12 -17 4 -4 16 13 21 21 13 21 -2 0 -10 -8 -17
-17z"/>
<path d="M805 839 c-3 -4 2 -6 10 -5 21 3 28 13 10 13 -9 0 -18 -4 -20 -8z"/>
<path d="M2157 835 c-4 -8 -3 -16 1 -19 4 -3 9 4 9 15 2 23 -3 25 -10 4z"/>
<path d="M2536 842 c-3 -5 1 -9 9 -9 8 0 12 4 9 9 -3 4 -7 8 -9 8 -2 0 -6 -4
-9 -8z"/>
<path d="M2639 833 c-13 -16 -12 -17 4 -4 9 7 17 15 17 17 0 8 -8 3 -21 -13z"/>
<path d="M3425 840 c-3 -6 1 -7 9 -4 18 7 21 14 7 14 -6 0 -13 -4 -16 -10z"/>
<path d="M3336 807 c3 -10 9 -15 12 -12 3 3 0 11 -7 18 -10 9 -11 8 -5 -6z"/>
<path d="M735 800 c-3 -5 -1 -10 4 -10 6 0 11 5 11 10 0 6 -2 10 -4 10 -3 0
-8 -4 -11 -10z"/>
<path d="M2214 798 c-4 -7 -4 -10 1 -6 4 4 15 2 24 -5 14 -11 14 -10 2 6 -16
20 -18 21 -27 5z"/>
<path d="M2630 805 c0 -7 30 -13 34 -7 3 4 -4 9 -15 9 -10 1 -19 0 -19 -2z"/>
<path d="M2876 798 c3 -5 10 -6 15 -3 13 9 11 12 -6 12 -8 0 -12 -4 -9 -9z"/>
<path d="M3110 796 c7 -7 13 -7 20 0 6 6 3 10 -10 10 -13 0 -16 -4 -10 -10z"/>
<path d="M940 785 c0 -2 6 -8 13 -14 10 -8 14 -7 14 2 0 8 -6 14 -14 14 -7 0
-13 -1 -13 -2z"/>
<path d="M2993 770 c-1 -11 2 -22 6 -24 4 -3 7 4 6 14 -2 27 -10 33 -12 10z"/>
<path d="M1234 769 c-3 -6 -2 -15 3 -20 5 -5 9 -1 9 11 0 23 -2 24 -12 9z"/>
<path d="M1993 765 c0 -8 4 -12 9 -9 5 3 6 10 3 15 -9 13 -12 11 -12 -6z"/>
<path d="M2415 769 c-4 -6 -5 -12 -2 -15 2 -3 7 2 10 11 7 17 1 20 -8 4z"/>
<path d="M2834 769 c-3 -6 -2 -15 3 -20 5 -5 9 -1 9 11 0 23 -2 24 -12 9z"/>
<path d="M856 753 c-6 -14 -5 -15 5 -6 7 7 10 15 7 18 -3 3 -9 -2 -12 -12z"/>
<path d="M1355 759 c-3 -4 2 -6 10 -5 21 3 28 13 10 13 -9 0 -18 -4 -20 -8z"/>
<path d="M3199 753 c-13 -16 -12 -17 4 -4 16 13 21 21 13 21 -2 0 -10 -8 -17
-17z"/>
<path d="M953 735 c0 -8 4 -12 9 -9 5 3 6 10 3 15 -9 13 -12 11 -12 -6z"/>
<path d="M2000 740 c-9 -6 -10 -10 -3 -10 6 0 15 5 18 10 8 12 4 12 -15 0z"/>
<path d="M1110 736 c0 -2 8 -10 18 -17 15 -13 16 -12 3 4 -13 16 -21 21 -21
13z"/>
<path d="M1355 731 c-3 -5 -2 -12 3 -15 5 -3 9 1 9 9 0 17 -3 19 -12 6z"/>
<path d="M2175 729 c-4 -6 -5 -12 -2 -15 2 -3 7 2 10 11 7 17 1 20 -8 4z"/>
<path d="M2710 736 c0 -2 8 -10 18 -17 15 -13 16 -12 3 4 -13 16 -21 21 -21
13z"/>
<path d="M2895 729 c-4 -6 -5 -12 -2 -15 2 -3 7 2 10 11 7 17 1 20 -8 4z"/>
<path d="M1027 719 c7 -7 15 -10 18 -7 3 3 -2 9 -12 12 -14 6 -15 5 -6 -5z"/>
<path d="M2056 713 c-6 -14 -5 -15 5 -6 7 7 10 15 7 18 -3 3 -9 -2 -12 -12z"/>
<path d="M2320 720 c-9 -6 -10 -10 -3 -10 6 0 15 5 18 10 8 12 4 12 -15 0z"/>
<path d="M2627 719 c7 -7 15 -10 18 -7 3 3 -2 9 -12 12 -14 6 -15 5 -6 -5z"/>
<path d="M987 699 c7 -7 15 -10 18 -7 3 3 -2 9 -12 12 -14 6 -15 5 -6 -5z"/>
<path d="M2360 700 c-9 -6 -10 -10 -3 -10 6 0 15 5 18 10 8 12 4 12 -15 0z"/>
<path d="M2587 699 c7 -7 15 -10 18 -7 3 3 -2 9 -12 12 -14 6 -15 5 -6 -5z"/>
<path d="M874 689 c-3 -6 -2 -15 3 -20 5 -5 9 -1 9 11 0 23 -2 24 -12 9z"/>
<path d="M1463 673 c-18 -38 -16 -54 2 -19 9 16 14 33 13 37 -2 5 -9 -4 -15
-18z"/>
<path d="M2494 686 c1 -8 5 -18 8 -22 4 -3 5 1 4 10 -1 8 -5 18 -8 22 -4 3 -5
-1 -4 -10z"/>
<path d="M3070 696 c0 -2 8 -10 18 -17 15 -13 16 -12 3 4 -13 16 -21 21 -21
13z"/>
<path d="M2033 675 c0 -8 4 -12 9 -9 5 3 6 10 3 15 -9 13 -12 11 -12 -6z"/>
<path d="M2947 679 c7 -7 15 -10 18 -7 3 3 -2 9 -12 12 -14 6 -15 5 -6 -5z"/>
<path d="M3307 679 c7 -7 15 -10 18 -7 3 3 -2 9 -12 12 -14 6 -15 5 -6 -5z"/>
<path d="M1950 666 c0 -2 7 -7 16 -10 8 -3 12 -2 9 4 -6 10 -25 14 -25 6z"/>
<path d="M2630 666 c0 -2 7 -7 16 -10 8 -3 12 -2 9 4 -6 10 -25 14 -25 6z"/>
<path d="M2713 663 c4 -3 1 -13 -6 -22 -11 -14 -10 -14 5 -2 16 12 16 31 1 31
-4 0 -3 -3 0 -7z"/>
<path d="M2880 660 c-9 -6 -10 -10 -3 -10 6 0 15 5 18 10 8 12 4 12 -15 0z"/>
<path d="M959 648 c-5 -18 -6 -38 -1 -34 7 8 12 36 6 36 -2 0 -4 -1 -5 -2z"/>
<path d="M1190 636 c7 -7 13 -7 20 0 6 6 3 10 -10 10 -13 0 -16 -4 -10 -10z"/>
<path d="M2790 636 c7 -7 13 -7 20 0 6 6 3 10 -10 10 -13 0 -16 -4 -10 -10z"/>
<path d="M3299 648 c-5 -18 -6 -38 -1 -34 7 8 12 36 6 36 -2 0 -4 -1 -5 -2z"/>
<path d="M915 631 c-3 -5 -2 -12 3 -15 5 -3 9 1 9 9 0 17 -3 19 -12 6z"/>
<path d="M1792 624 c-7 -8 -8 -14 -3 -14 10 0 25 19 20 25 -2 1 -10 -3 -17
-11z"/>
<path d="M1504 622 c4 -3 14 -7 22 -8 9 -1 13 0 10 4 -4 3 -14 7 -22 8 -9 1
-13 0 -10 -4z"/>
<path d="M1822 618 c-7 -7 -12 -17 -12 -22 0 -6 5 -3 11 7 6 9 15 14 21 11 7
-4 8 -2 4 4 -9 15 -9 15 -24 0z"/>
<path d="M1882 603 c25 -27 39 -32 15 -5 -10 10 -15 21 -12 24 3 2 -2 5 -10 5
-12 0 -10 -6 7 -24z"/>
<path d="M3156 622 c-2 -4 -1 -14 4 -22 7 -11 9 -9 7 8 -1 24 -3 26 -11 14z"/>
<path d="M1553 605 c0 -8 4 -12 9 -9 5 3 6 10 3 15 -9 13 -12 11 -12 -6z"/>
<path d="M2194 609 c-3 -6 -2 -15 3 -20 5 -5 9 -1 9 11 0 23 -2 24 -12 9z"/>
<path d="M3191 607 c-8 -10 -7 -14 2 -14 8 0 14 6 14 14 0 7 -1 13 -2 13 -2 0
-8 -6 -14 -13z"/>
<path d="M1915 600 c3 -5 8 -10 11 -10 2 0 4 5 4 10 0 6 -5 10 -11 10 -5 0 -7
-4 -4 -10z"/>
<path d="M2430 586 c0 -2 7 -7 16 -10 8 -3 12 -2 9 4 -6 10 -25 14 -25 6z"/>
<path d="M2553 573 c0 -9 4 -10 14 -2 7 6 13 12 13 14 0 1 -6 2 -13 2 -8 0
-14 -6 -14 -14z"/>
<path d="M1429 557 c6 -8 7 -18 3 -22 -4 -5 -1 -5 6 -1 10 6 10 11 1 22 -6 8
-14 14 -16 14 -3 0 0 -6 6 -13z"/>
<path d="M1530 559 c0 -5 5 -7 10 -4 6 3 10 8 10 11 0 2 -4 4 -10 4 -5 0 -10
-5 -10 -11z"/>
<path d="M1825 560 c-3 -6 1 -7 9 -4 18 7 21 14 7 14 -6 0 -13 -4 -16 -10z"/>
<path d="M2306 562 c-2 -4 4 -8 14 -8 10 0 16 4 14 8 -3 4 -9 8 -14 8 -5 0
-11 -4 -14 -8z"/>
<path d="M2960 560 c-9 -6 -10 -10 -3 -10 6 0 15 5 18 10 8 12 4 12 -15 0z"/>
<path d="M1075 541 c-3 -5 -2 -12 3 -15 5 -3 9 1 9 9 0 17 -3 19 -12 6z"/>
<path d="M1387 539 c7 -7 15 -10 18 -7 3 3 -2 9 -12 12 -14 6 -15 5 -6 -5z"/>
<path d="M2713 535 c0 -8 4 -12 9 -9 5 3 6 10 3 15 -9 13 -12 11 -12 -6z"/>
<path d="M2880 540 c-9 -6 -10 -10 -3 -10 6 0 15 5 18 10 8 12 4 12 -15 0z"/>
<path d="M3000 540 c-9 -6 -10 -10 -3 -10 6 0 15 5 18 10 8 12 4 12 -15 0z"/>
<path d="M1109 523 c-13 -16 -12 -17 4 -4 16 13 21 21 13 21 -2 0 -10 -8 -17
-17z"/>
<path d="M1535 531 c-3 -5 -2 -12 3 -15 5 -3 9 1 9 9 0 17 -3 19 -12 6z"/>
<path d="M2519 538 c-5 -9 -5 -48 -1 -43 6 6 11 45 5 45 -2 0 -4 -1 -4 -2z"/>
<path d="M2955 531 c-3 -5 -2 -12 3 -15 5 -3 9 1 9 9 0 17 -3 19 -12 6z"/>
<path d="M1484 522 c4 -3 14 -7 22 -8 9 -1 13 0 10 4 -4 3 -14 7 -22 8 -9 1
-13 0 -10 -4z"/>
<path d="M1746 522 c-3 -5 1 -9 9 -9 8 0 12 4 9 9 -3 4 -7 8 -9 8 -2 0 -6 -4
-9 -8z"/>
<path d="M1910 521 c0 -6 4 -13 10 -16 6 -3 7 1 4 9 -7 18 -14 21 -14 7z"/>
<path d="M1993 515 c0 -8 4 -12 9 -9 5 3 6 10 3 15 -9 13 -12 11 -12 -6z"/>
<path d="M2113 515 c0 -8 4 -12 9 -9 5 3 6 10 3 15 -9 13 -12 11 -12 -6z"/>
<path d="M2236 513 c-6 -14 -5 -15 5 -6 7 7 10 15 7 18 -3 3 -9 -2 -12 -12z"/>
<path d="M2260 526 c0 -2 8 -10 18 -17 15 -13 16 -12 3 4 -13 16 -21 21 -21
13z"/>
<path d="M2356 513 c-6 -14 -5 -15 5 -6 7 7 10 15 7 18 -3 3 -9 -2 -12 -12z"/>
<path d="M2380 526 c0 -2 8 -10 18 -17 15 -13 16 -12 3 4 -13 16 -21 21 -21
13z"/>
<path d="M2476 513 c-6 -14 -5 -15 5 -6 7 7 10 15 7 18 -3 3 -9 -2 -12 -12z"/>
<path d="M1353 503 c4 -3 1 -13 -6 -22 -11 -14 -10 -14 5 -2 16 12 16 31 1 31
-4 0 -3 -3 0 -7z"/>
<path d="M1096 487 c3 -10 9 -15 12 -12 3 3 0 11 -7 18 -10 9 -11 8 -5 -6z"/>
<path d="M1150 481 c0 -6 4 -13 10 -16 6 -3 7 1 4 9 -7 18 -14 21 -14 7z"/>
<path d="M1430 476 c7 -7 13 -7 20 0 6 6 3 10 -10 10 -13 0 -16 -4 -10 -10z"/>
<path d="M2226 478 c3 -5 10 -6 15 -3 13 9 11 12 -6 12 -8 0 -12 -4 -9 -9z"/>
<path d="M2707 479 c7 -7 15 -10 18 -7 3 3 -2 9 -12 12 -14 6 -15 5 -6 -5z"/>
<path d="M2079 478 c-5 -18 -6 -38 -1 -34 7 8 12 36 6 36 -2 0 -4 -1 -5 -2z"/>
<path d="M2315 471 c-3 -5 -2 -12 3 -15 5 -3 9 1 9 9 0 17 -3 19 -12 6z"/>
<path d="M3013 465 c0 -8 4 -12 9 -9 5 3 6 10 3 15 -9 13 -12 11 -12 -6z"/>
<path d="M2187 459 c7 -7 15 -10 18 -7 3 3 -2 9 -12 12 -14 6 -15 5 -6 -5z"/>
<path d="M2553 453 c0 -9 4 -10 14 -2 7 6 13 12 13 14 0 1 -6 2 -13 2 -8 0
-14 -6 -14 -14z"/>
<path d="M2785 459 c-3 -4 2 -6 10 -5 21 3 28 13 10 13 -9 0 -18 -4 -20 -8z"/>
<path d="M1556 447 c3 -10 9 -15 12 -12 3 3 0 11 -7 18 -10 9 -11 8 -5 -6z"/>
<path d="M2869 443 c-13 -16 -12 -17 4 -4 9 7 17 15 17 17 0 8 -8 3 -21 -13z"/>
<path d="M1416 441 c8 -8 43 -8 38 0 -2 4 -13 7 -24 6 -10 -1 -17 -3 -14 -6z"/>
<path d="M1585 439 c-3 -4 2 -6 10 -5 21 3 28 13 10 13 -9 0 -18 -4 -20 -8z"/>
<path d="M1804 442 c4 -3 14 -7 22 -8 9 -1 13 0 10 4 -4 3 -14 7 -22 8 -9 1
-13 0 -10 -4z"/>
<path d="M1856 438 c3 -5 10 -6 15 -3 13 9 11 12 -6 12 -8 0 -12 -4 -9 -9z"/>
<path d="M2715 440 c3 -5 8 -10 11 -10 2 0 4 5 4 10 0 6 -5 10 -11 10 -5 0 -7
-4 -4 -10z"/>
<path d="M2314 426 c1 -8 5 -18 8 -22 4 -3 5 1 4 10 -1 8 -5 18 -8 22 -4 3 -5
-1 -4 -10z"/>
<path d="M1175 420 c3 -5 8 -10 11 -10 2 0 4 5 4 10 0 6 -5 10 -11 10 -5 0 -7
-4 -4 -10z"/>
<path d="M1665 419 c-3 -4 2 -6 10 -5 21 3 28 13 10 13 -9 0 -18 -4 -20 -8z"/>
<path d="M2395 421 c-3 -5 -2 -12 3 -15 5 -3 9 1 9 9 0 17 -3 19 -12 6z"/>
<path d="M2655 409 c-4 -6 -5 -12 -2 -15 2 -3 7 2 10 11 7 17 1 20 -8 4z"/>
<path d="M1756 398 c3 -5 10 -6 15 -3 13 9 11 12 -6 12 -8 0 -12 -4 -9 -9z"/>
<path d="M1900 405 c0 -2 6 -8 13 -14 10 -8 14 -7 14 2 0 8 -6 14 -14 14 -7 0
-13 -1 -13 -2z"/>
<path d="M2275 383 c3 -3 0 -11 -5 -18 -7 -8 -5 -12 4 -12 14 0 16 22 3 32 -4
3 -5 2 -2 -2z"/>
<path d="M2894 382 c4 -3 14 -7 22 -8 9 -1 13 0 10 4 -4 3 -14 7 -22 8 -9 1
-13 0 -10 -4z"/>
<path d="M1414 358 c-4 -7 -4 -10 1 -6 4 4 15 2 24 -5 14 -11 14 -10 2 6 -16
20 -18 21 -27 5z"/>
<path d="M1677 355 c-4 -8 -3 -16 1 -19 4 -3 9 4 9 15 2 23 -3 25 -10 4z"/>
<path d="M1700 366 c0 -2 8 -10 18 -17 15 -13 16 -12 3 4 -13 16 -21 21 -21
13z"/>
<path d="M1876 353 c-6 -14 -5 -15 5 -6 7 7 10 15 7 18 -3 3 -9 -2 -12 -12z"/>
<path d="M1910 360 c0 -5 5 -10 11 -10 5 0 7 5 4 10 -3 6 -8 10 -11 10 -2 0
-4 -4 -4 -10z"/>
<path d="M2226 358 c3 -5 10 -6 15 -3 13 9 11 12 -6 12 -8 0 -12 -4 -9 -9z"/>
<path d="M2386 362 c-3 -5 1 -9 9 -9 8 0 12 4 9 9 -3 4 -7 8 -9 8 -2 0 -6 -4
-9 -8z"/>
<path d="M2774 354 c1 -8 4 -15 7 -16 2 -2 3 -1 2 1 -2 2 2 9 7 16 7 8 5 12
-4 12 -8 0 -13 -6 -12 -13z"/>
<path d="M2819 368 c-5 -18 -6 -38 -1 -34 7 8 12 36 6 36 -2 0 -4 -1 -5 -2z"/>
<path d="M2536 313 c-6 -14 -5 -15 5 -6 7 7 10 15 7 18 -3 3 -9 -2 -12 -12z"/>
<path d="M2616 313 c-6 -14 -5 -15 5 -6 7 7 10 15 7 18 -3 3 -9 -2 -12 -12z"/>
<path d="M2720 320 c-9 -6 -10 -10 -3 -10 6 0 15 5 18 10 8 12 4 12 -15 0z"/>
<path d="M2673 305 c0 -8 4 -12 9 -9 5 3 6 10 3 15 -9 13 -12 11 -12 -6z"/>
<path d="M1559 308 c-5 -16 -4 -46 2 -42 4 2 7 13 6 24 -1 17 -5 26 -8 18z"/>
<path d="M1599 298 c-5 -18 -6 -38 -1 -34 7 8 12 36 6 36 -2 0 -4 -1 -5 -2z"/>
<path d="M1896 287 c3 -10 9 -15 12 -12 3 3 0 11 -7 18 -10 9 -11 8 -5 -6z"/>
<path d="M1935 289 c-4 -6 -5 -12 -2 -15 2 -3 7 2 10 11 7 17 1 20 -8 4z"/>
<path d="M2004 282 c4 -3 14 -7 22 -8 9 -1 13 0 10 4 -4 3 -14 7 -22 8 -9 1
-13 0 -10 -4z"/>
<path d="M2239 273 c-13 -16 -12 -17 4 -4 16 13 21 21 13 21 -2 0 -10 -8 -17
-17z"/>
<path d="M2475 281 c-3 -5 -2 -12 3 -15 5 -3 9 1 9 9 0 17 -3 19 -12 6z"/>
<path d="M1790 256 c0 -2 8 -10 18 -17 15 -13 16 -12 3 4 -13 16 -21 21 -21
13z"/>
<path d="M2086 238 c3 -5 10 -6 15 -3 13 9 11 12 -6 12 -8 0 -12 -4 -9 -9z"/>
<path d="M2494 222 c4 -3 14 -7 22 -8 9 -1 13 0 10 4 -4 3 -14 7 -22 8 -9 1
-13 0 -10 -4z"/>
</g>
</svg>
